<?xml version="1.0" encoding="utf-8"?>
<!-- Generator: Adobe Illustrator 18.0.0, SVG Export Plug-In . SVG Version: 6.00 Build 0)  -->
<!DOCTYPE svg PUBLIC "-//W3C//DTD SVG 1.1//EN" "http://www.w3.org/Graphics/SVG/1.1/DTD/svg11.dtd">
<svg version="1.1" id="图层_1" xmlns="http://www.w3.org/2000/svg" xmlns:xlink="http://www.w3.org/1999/xlink" x="0px" y="0px"
	 viewBox="0 0 400 89" enable-background="new 0 0 400 89" xml:space="preserve">
<path fill="#0C318E" d="M18.2,54.1l2.2-0.3c0.3,0,0.2-0.4,0-0.4l-2.3,0.3c-0.9,0.1-0.8-1-0.1-1l2.3-0.3c0.3,0,0.3-0.4,0-0.4L18,52.3
	C16.7,52.4,16.6,54.3,18.2,54.1"/>
<path fill="#0C318E" d="M18.5,42.6c0.3,0.3,0.3,0.6,0.1,0.7c-0.2,0.2-0.3,0.8,0.2,0.5c0.4-0.2,0.7-0.2,0.8-0.7
	c0.1-0.3,0.4-0.2,0.4,0c0.6,1.3,1.2,2,1.4,1.8c0.3-0.3,0.3-0.4-0.1-0.9c-0.4-0.5-0.8-0.9-0.2-0.8c0.7,0.2,1.4,0.4,1.4,0
	c0-0.4-0.2-0.4-0.6-0.5c-0.4-0.1-1-0.3-1.4-0.4c-0.4-0.1-1-0.6-1-2.6c0,0,0.3,0,0.4,0.4c0.1,0.4,0.4,1.3,0.7,1.6
	c0.3,0.3,0.4,0.4,0.9-0.2c0.2-0.3,0.3-0.4,0.2-0.9c-0.1-0.5,1.2,1.3,1.4,0.2c0.2-1.1,0.8-2,0.5-2.4c-0.4-0.4-0.7-0.2-0.8,0.4
	c-0.1,0.6-0.7,1.2-0.9,0.5c-0.2-0.6-0.5-1-0.9-0.7c-0.4,0.3,0.3,0.2,0.1,0.6c-0.2,0.3-0.8-0.2-1-0.6c-0.2-0.4-0.2-0.7-0.4-0.7
	c-0.4,0-0.1,0.8-0.4,0.8c-0.3,0,0.2-0.4-0.3-0.9c-0.5-0.5-2.4-0.4-2.3,0.6c0,0.4,0.3,0.5,0.7,0.6c0.5,0.2,1.1,0.3,1.4,0.4
	c0.5,0.2,0.3,0.2,0.3,0.4c0,0.2,0,1.2,0.4,1.9c0.1,0.2,0.1,0.3-0.2,0.2c-0.3,0-0.1-0.4-0.3-0.7C19,41,19,41.2,18.8,41.3
	c-0.2,0.2,0.2,0.1,0.2,0.4c0,0.2-0.2,0.2-0.4,0.1c-0.3-0.1-0.2-0.2-1-0.2c-0.7,0-1.1,0.3-1.1,0.5c0,0.2,0.1,0,0.4,0.1
	C17.1,42.1,18.3,42.3,18.5,42.6 M21.5,40.6c0.1,0.6-0.4,1.1-0.6,0.5c-0.1-0.3-0.3-0.9-0.3-0.9C20.8,40.2,21.5,40.6,21.5,40.6
	 M18.6,38.4c-0.2,0-0.5,0-0.7,0c-0.3-0.2,0.3-0.2,0.6-0.2C18.8,38.2,18.8,38.5,18.6,38.4"/>
<path fill="#0C318E" d="M32.5,60.1c0.4,0,13.7-0.1,13.9-0.1c0.5,0,0.4-0.2,0.1-0.5c-0.8-0.6-1.4-0.9-2.2-1.7
	c-0.3-0.2-0.6-0.1-0.8-0.1h-1.9c-0.2,0-0.4,0-0.6,0.4c-0.3,0.4-0.7,0.8-0.7,0.8s-0.6-0.7-0.8-1l-0.2-0.3h-0.6c-0.3,0-5.6,0.1-5.9,0
	c-0.3,0-0.6-0.1-0.6,1.1C32.1,60,32.1,60.1,32.5,60.1"/>
<path fill="#0C318E" d="M17.6,51.5c0.5,0.2,1.1,0.3,1.1-0.1l0-1.2c0-0.2-0.1-0.2-0.2-0.2c-0.2,0-0.2,0.1-0.2,0.2l0,1H18
	c-1.3-0.2-1.1-1.8,0.5-1.9c1.7,0,1.7,1.4,0.9,1.8c-0.2,0.1-0.1,0.4,0.1,0.4c1-0.4,1.1-1.4,0.6-2c-0.6-0.8-2.4-0.8-3.1,0.1
	C16.4,50.5,16.9,51.3,17.6,51.5"/>
<path fill="#0C318E" d="M24.3,48.8C24,61.8,34.4,72.5,47.4,72.7c13,0.2,23.7-10.1,23.9-23C71.5,36.8,61.2,26,48.2,25.8
	C35.3,25.6,24.5,35.9,24.3,48.8 M48.2,26.3c12.7,0.2,22.8,10.8,22.6,23.4c-0.2,12.7-10.8,22.8-23.5,22.6
	C34.7,72,24.5,61.5,24.8,48.8C25,36.2,35.6,26,48.2,26.3"/>
<path fill="#0C318E" d="M23.2,32.9c0,0,0.1,0.5,0.2,0.8c0.1,0.2,0.2,0.6-0.2,0.8c-0.3,0.1-0.3,0.5,0.2,0.4c0.4-0.1,0.6-0.3,0.6-0.5
	c0-0.2,0.4-0.2,0.4,0.1c0,0.3-0.1,1.2,0.5,0.9c0.6-0.2,0.6-0.4,0.4-0.6c-0.3-0.2,0.1-0.5,0.3-0.5c0.2,0-0.1,0.5,0.4,0.6
	c0.5,0,0.8-0.2,0.4-0.5c-0.4-0.2-1-0.6-1-0.6s0.2-0.6-0.2-1.3c-0.1-0.2,0-0.3,0-0.3c-0.1,0-0.3,0-0.3,0.1c0,0.3,0,0.5,0.2,0.7
	c0.1,0.2,0.3,1-0.1,0.4c-0.4-0.5-0.4-1.4-1.1-1.3c-0.7,0.1-1-0.7-1.4-0.5c-0.4,0.2-0.4,0.4-0.2,0.6C22.4,32.3,23,32.4,23.2,32.9"/>
<path fill="#0C318E" d="M44.4,37.4c0.6,0,1.2-0.5,1.2-1.2c0-0.7-0.5-1.2-1.1-1.2c-0.7,0-1.2,0.5-1.2,1.2
	C43.2,36.9,43.7,37.4,44.4,37.4"/>
<path fill="#0C318E" d="M40.3,22.9c0.3-0.2,0.6-0.4,1-0.6c0.3-0.2,0.4,0,0.5,0.2c0.1,0.2,0.4,0.9,0.2,1.2c-0.2,0.3-0.3,0.5-1.3,0.3
	c-0.4-0.1-0.5,0.3-0.1,0.5c0.4,0.2,1.5,0.7,2.3,0.2c0.2-0.2,0.2-0.5,0.2-0.8c0-0.7-0.1-1.4-0.4-1.7c0,0,0.5-0.2,0.8-0.3
	c0.3-0.2,0.6-0.3,0.6-0.5c-0.1-0.2-0.9-0.1-1.6,0.1c-0.2,0.1-0.1-0.3,0.1-0.5c0.2-0.3,0.6-0.7,0.6-1.4c0-0.5-0.4-0.2-0.7-0.2
	c-0.3,0-1.4,0.2-2.7,1.1c-0.2,0.2-0.4,0.2-0.3,0.4c0.1,0.2,0.6,1,0.8,0.6c0.3-0.4,0.8-1.2,1.2-1.4c0.4-0.2,1-0.2,0.9,0.1
	c-0.2,0.5-0.9,1.4-1.4,1.7c-0.3,0.2-0.9,0.4-1.4,0.7c-0.4,0.3-0.7,0.8-0.4,0.8C39.8,23.5,40,23.2,40.3,22.9"/>
<path fill="#0C318E" d="M23.3,30c0.1-0.1,0.2-0.4,0.6,0c0.4,0.3,0.8,0.7,0.8,0.7v0.8c0,0.2,0.4,0.4,0.5,0.1c0.1-0.3,0.1-0.5,0.2-0.4
	c0.2,0.2,0.4,0.4,0.4,0.8c0,0.4,0.4,1.2,0.5,1.4c0.2,0.2,0.5,0,0.3-0.3c0-0.2-0.2-0.4-0.2-0.7c0.2-0.1,0.5-0.2,0.7-0.2
	c0.2,0.2,0.4,0.4,0.5,0.4c0.3,0.2,0.4,0.4,0,0.3c-0.3-0.1-0.5,0.4,0,0.4c0.5,0,1.6,0,1.4-0.5c-0.1-0.5-0.5-0.5-0.7-0.5
	c-0.2,0-0.3-0.2-0.6-0.4c0,0,0,0,0,0c0.4-0.2,0.8-0.6,1.2-0.9c0.4-0.4-0.2-0.6-0.8-0.2c-0.2,0.1-0.6,0.4-0.9,0.7
	c-0.5-0.4-1.2-0.8-1.7-1.1c0-0.4-0.1-1-0.2-1.2c-0.2-0.4-0.5-0.1-0.4,0.1v0.5c-0.3-0.3-0.6-0.4-0.8-0.5c-0.3-0.1-0.6-0.3-0.9,0.3
	C22.8,30,23.2,30.1,23.3,30 M26.6,31.7c-0.2,0.2-0.3,0.2-0.4,0.4c0-0.2-0.1-0.4-0.1-0.5C26.2,31.3,26.3,31.4,26.6,31.7"/>
<path fill="#0C318E" d="M36.2,47.6c0.8-0.7,0.8-0.8,0.6-1.1c-2.4-3.2-5.1-8.5-3-11.2c2.1-2.7,6.6-0.4,6.8-0.3c0.2,0.1,0.5,0.2,0.7,0
	c0.2-0.3,0.4-0.6,0.4-0.6c0.2-0.2-0.1-0.3-0.4-0.4c-5.6-1.6-7.5,0.6-8,1.2c-2.6,3.4,0.8,9.9,2,11.9C35.8,47.8,36,47.9,36.2,47.6"/>
<path fill="#0C318E" d="M38,46.1c-0.4,0.4-0.1,0.5-0.1,0.5l3.9,0.1c0,0,3.6-5,6.4-3.7c1.4,0.6,0.6,2.8,0.4,3.3
	c-0.2,0.6-0.2,0.6,0.2,0.6c0.4,0,11.5,0.1,11.5,0.1s1.3-1.6,2.1-4c1-3,1.3-7-0.9-8.7c-1.9-1.4-5.3-1.3-9.3,0.3
	C47.9,36.3,43,40.3,38,46.1"/>
<path fill="#0C318E" d="M70.3,35.2c-0.5,0.8-0.4,1.2-0.1,1.7c0.2,0.5,0.6,0.5,0.9-0.1c0.4-0.6-0.2-1.5-0.3-1.6
	C70.7,35,70.5,35.1,70.3,35.2"/>
<path fill="#0C318E" d="M68.5,33.5c0.2,0.1,0.2,0,0.4,0.3c0.6,0.8,1,0.8,1.5,0.8c0.5,0,1.1-0.4,1.1-0.4c0.4,0.3,0.7,0.6,1.2,0.6
	c0.5,0,0.5-0.4,0.4-0.4c-0.2-0.1-0.6-0.5-0.6-0.5c0.4-0.2,1.1-0.7,1.3-0.9c0.2-0.2,0-0.4-0.2-0.7c-0.3-0.3-0.2-0.2-0.4,0
	c-0.2,0.2-0.8,0.5-1.2,0.7c-0.5,0.2-0.5,0.1-0.8-0.1c-0.4-0.4-0.4-0.5-0.4-0.7c0-0.2-0.1-0.4-0.3-0.1c-0.2,0.2-0.2,0.6-0.1,0.9
	c0.1,0.2,0.2,0.4-0.2,0.4h-0.9c-0.2,0-0.4-0.3-0.5-0.5c-0.1-0.2-0.3-0.4-0.6,0C67.6,33.3,68.3,33.4,68.5,33.5"/>
<path fill="#0C318E" d="M53.9,21c0.2,0.2,0.3,0.1,0.5-0.2c0.2-0.3-0.2-0.8-0.4-1c-0.1,0-0.1-0.1-0.2,0c0,0,0,0.2,0.2,0.5
	C54.3,20.6,53.7,20.8,53.9,21"/>
<path fill="#0C318E" d="M77.1,40.3c0.2-0.2,0.1-0.5,0-0.8c-0.1-0.2-0.2-0.2-0.4,0c-0.2,0.1-0.2,0.1-0.4,0.3
	c-0.2,0.2-0.5,0.2-0.2,0.4C76.4,40.5,76.8,40.4,77.1,40.3"/>
<path fill="#0C318E" d="M53.3,21.7c0.4,0.4-0.3,0.3-0.5,0.5c-0.2,0.2-0.6,0.7-0.4,1c0.2,0.3,1.1-0.1,1.4-0.2
	c0.4-0.2,0.6-0.2,0.5,0.1c-0.1,0.3-0.3,1.3-0.4,1.8c-0.1,0.5-0.2,0.8,0.1,0.8c0.3,0.1,0.4-0.2,0.5-0.5c0.1-0.3,0.5-2.1,0.5-2.4
	c0-0.3,0.5-0.5,0.8-0.6c0.3-0.1,0.3-0.2,0.2-0.6c0-0.4-0.3-1.5-0.5-1.9c-0.2-0.5-0.4-0.2-0.5,0.2c-0.1,0.4-0.3,1.8-0.4,2.3
	c-0.2,0.6-0.4,0.4-0.6,0.5c-0.2,0.1-1,0.6-1,0.3c-0.2-0.5,0.8-0.4,0.8-0.8c0-0.3,0-0.5-0.2-0.6C53.3,21.2,52.9,21.3,53.3,21.7
	 M55.3,21.2c0-0.2,0.1-0.3,0.3-0.1c0.2,0.2,0.4,0.6-0.4,0.8C55.2,21.9,55.3,21.5,55.3,21.2"/>
<path fill="#0C318E" d="M75.3,43.1c0.2,0.2,0.4,0.4,0.5,0.2c0.1-0.2,0.1-0.4-0.1-0.7c-0.3-0.7-0.9-1.2-1.1-1.4
	c-0.6-0.2-0.6,0.1-0.4,0.3c0.6,0.6,0.7,0.8,0.4,1c-0.1,0.1-0.3,0.1-0.5,0c-0.3-0.2-0.7-0.6-1-0.8c-0.5-0.4-0.9-0.4-1.1-0.1
	c-0.2,0.3-0.2,1.8,0.1,2.2c0.4,0.4,0.8,0.1,1.2-0.1c0.4-0.2,0.5-0.2,0.6,0.1c0.4,0.8,0.6,0.8,0.8,0.6c0.2-0.2,0.1-0.7,0-0.9
	c-0.1-0.2,0-0.3,0.1-0.3C75.1,43.1,75.1,42.9,75.3,43.1 M73.3,42.8c-0.5,0.2-0.8,0.2-0.8-0.2c0-0.4-0.1-0.9,0.4-0.8
	C73.2,42,73.8,42.7,73.3,42.8"/>
<path fill="#0C318E" d="M73.8,40.3c0.7,0.2,1,0.3,1.5,1c0.5,0.6,0.8,0.4,1.4,1.1c0.7,0.7,0.2,1.2-0.3,1.2c-0.2,0-0.6,0-0.3,0.4
	c0.5,0.7,0.7,0.7,1.2,0.2c0.6-0.6,0.2-1.2,0.1-1.5c-0.1-0.2,0.4,0,0.8,0.2c0.4,0.2,0.6,0.3,0.7,0.1c0.1-0.2-0.2-0.6-0.5-0.9
	c-0.4-0.3-0.7-1-0.6-1.3c0.1-0.3-0.2-0.4-0.4-0.4c-0.2,0.1-0.3,0.4,0,0.6c0.2,0.2,0.1,0.4,0.4,0.8c0.1,0.2,0.2,0.3-0.2,0.3
	c-0.2,0-0.5-0.1-0.6-0.2c-0.3-0.2-1.2-0.8-1.5-1.1c-0.2-0.2-0.2-0.4-0.1-0.5c0.1-0.2,0.1-0.2,0-0.5c0-0.2-0.5-0.4-0.6-0.2
	c-0.2,0.3-0.5,0-1,0C73.1,39.5,73.2,40,73.8,40.3"/>
<path fill="#0C318E" d="M60.6,26.8c0.2,0.2,0.3,0.2,0.3,0.6c0,0.4,0.5,0.5,0.8,0.3c0.3-0.2,1-1.2,1.3-1.5c0.3-0.3,0.4-0.2,0.6-0.2
	c0.2,0,0.7,0,1,0.1c0.3,0.1,0.4,0.2,0.3,0.3c-0.1,0.2-0.2,0.3-0.4,0.4c-0.1,0.1-0.4,0.3-0.2,0.4c0.2,0.1,0.2,0.2,0.6,0.4
	c0.5,0.2,0,0.5-0.3,0.6c-0.2,0.1-0.3-0.1-0.5-0.4c-0.2-0.3-0.5-0.7-0.7-0.9c-0.3-0.3-0.4,0.1-0.4,0.3c0,0.2,0.1,0.4,0.5,0.9
	c0.3,0.5-0.2,0.3-0.4,0c-0.2-0.2-0.4-0.4-0.5-0.3c-0.2,0,0,0.4,0.3,0.9c0.4,0.4,1.1,0.1,1.2,0.5c0.1,0.3,0.2,0.9,0.4,1.2
	c0.2,0.4,0.5,0.2,0.4-0.1c-0.1-0.7-0.2-1.6-0.2-1.6c0.2,0,0.7-0.3,0.9-0.6c0.2-0.3,0-1-0.3-1.1c-0.2-0.1-0.1-0.2,0-0.3
	c0.1-0.1,0.4-0.5,0.4-0.5c0.4,0,1,0.2,1.1,0c0-0.2-0.1-0.6-0.2-0.9c-0.1-0.3-0.1-0.3,0.1-0.6c0.2-0.2,0.2-0.4,0.1-0.5
	c-0.1-0.1-0.3-0.1-0.4,0c-0.1,0.2-0.2,0.3-0.5,0.4c-0.3,0-0.4,0.2-0.2,0.3c0.2,0.2-0.1,0.3-0.3,0.4c-0.2,0.2-0.3,0.3-0.6,0.3
	c-0.3,0-1.3-0.2-1.4-0.2c-0.1,0-0.2-0.2,0.1-0.2c0.6,0.1,0.8,0.1,0.8,0c0-0.1,0-0.3-0.2-0.4c-0.2-0.2-0.4-0.2-0.3-0.6
	c0.1-0.4,0-0.6-0.2-0.8c-0.2-0.2-0.5-0.1-0.5,0.1c0,0.2,0.1,0.4-0.1,0.7c-0.1,0.3-0.3,0.2-0.5,0.2c-1.2,0-2.1,0.2-1.8,0.5
	c0.3,0.3,0.6-0.2,1.6,0c0.2,0,0.3,0.2,0,0.6c-0.2,0.3-0.4,0.2-1,0.3c-0.4,0-0.6,0.1-1,0.3C60.1,26.5,60.4,26.6,60.6,26.8 M62.1,26.3
	c0,0-0.3,0.4-0.4,0.5c-0.2,0.1-0.2,0.2-0.5-0.1C61,26.5,61.6,26.2,62.1,26.3"/>
<path fill="#0C318E" d="M45,55.5l8.6,0c0,0,1.4-1.6,1.6-2c0.2-0.3,0.2-0.4-0.4-0.4h-8.8l-1,0.9l-1.2-1.1h-0.7
	c-0.2,0-0.4,0.1-0.2,0.4C43.2,53.5,45,55.5,45,55.5"/>
<path fill="#0C318E" d="M49.7,59c0.1-0.1,0.6-0.5,0.9-0.8c0.2-0.2,0.1-0.4-0.1-0.4h-2.1c-0.3,0-0.3,0.2-0.2,0.4
	c0.2,0.1,0.5,0.3,0.8,0.6C49.5,59.2,49.6,59.1,49.7,59"/>
<path fill="#0C318E" d="M60,49.9c-0.2,0.4-0.6,0.7-0.3,1.3c0.3,0.5,2.8,3.9,3.1,7.3c0.1,1.2,0.2,2.4-0.5,3.4
	c-1.4,2-5.2,2.8-12.5-2.2c-0.3-0.2-0.4-0.1-0.5,0c-0.1,0.2-0.4,0.4-0.6,0.6c-0.2,0.2-0.5,0.4-0.1,0.6c2,1.2,4.1,2.1,6.4,2.7
	c0.9,0.2,5.1,1.2,7.2-1c0.9-0.9,0.9-1.1,1.2-2c0.6-2.4,0.2-6.3-2.7-11.1C60.4,49.3,60.3,49.5,60,49.9"/>
<path fill="#0C318E" d="M59.1,48.6c0.2-0.2,0.1-0.4-0.4-0.4c-0.6,0-10.5,0-10.5,0l-1,1.2l-1-1.1c0,0-6.8-0.1-7.2-0.1
	c-0.3,0-0.6,0-0.2,0.4c0.3,0.4,1.7,2.1,1.7,2.1h17.1C57.5,50.7,58.9,48.8,59.1,48.6"/>
<path fill="#0C318E" d="M33.3,53.6c-0.1,0.6-0.2,0.9-0.4,1.2c-0.1,0.3-0.1,0.4,0.3,0.5c0.4,0,6.9,0,7.3,0.1c0.4,0,1.1,0.1,0.5-0.5
	c-0.5-0.6-1-1.3-1.5-1.8c-0.2-0.3-1-0.2-1.5-0.2c-0.6,0-4,0-4.3,0C33.5,52.9,33.4,53.1,33.3,53.6"/>
<path fill="#0C318E" d="M44.2,61.8c-0.3,0-11.3,0-11.3,0c-0.4,0-0.5,0.3-0.3,0.6c0.2,0.3,1,2.1,4.5,2.2c3.4,0.1,6.2-1.7,6.9-2.1
	C44.7,62.1,44.4,61.8,44.2,61.8"/>
<path fill="#0C318E" d="M50.6,21.5c0.4,0,0.4,0.2,0.4,0.3c0,0.2,0,0.2-0.6,0.6c-0.6,0.4-0.6,0.8-0.3,0.8c0.2,0,0.4-0.1,0.6-0.2
	c0.2-0.2,0.2,0,0.2,0.2c-0.1,0.2-0.2,1.4,0.2,1.4c0.3,0,0.2-0.3,0.3-0.6c0-0.3,0.3-1.2,0.7-1.4c0.4-0.2,1-0.4,0.7-0.8
	c-0.3-0.4-0.7,0.7-0.8,0.3c-0.1-0.2,0.4-0.6,0.6-0.7c0.2,0,0.7-0.1,0.2-0.6c-0.4-0.5-0.3-0.8,0-0.8c0.5,0,0.7,0.2,0.7-0.4
	c-0.1-0.6-0.2-1.1-0.6-0.7c-0.2,0.2-0.4,0.4-0.9,0.6c-0.4,0.2-0.6,0.2-1.7,0.2c-0.3,0-0.4,0.3-0.2,0.3h1.1c0.4,0,0.5,0.1,0.3,0.4
	c-0.1,0.3-0.2,0.5-0.9,0.6c-0.9,0-1-0.1-1.1,0C49.3,21.3,49.3,21.5,50.6,21.5"/>
<path fill="#0C318E" d="M36.8,50.7c0.5,0,0.7,0,0.4-0.4c-0.7-0.9-1-1.5-1.1-1.6c-0.2-0.2-0.4-0.2-0.5-0.1c-0.1,0.2-0.5,0.9-0.6,1.3
	c-0.2,0.4-0.3,0.7,0,0.7C35.3,50.6,36.4,50.6,36.8,50.7"/>
<path fill="#0C318E" d="M31.2,27.6c0.4,0.2,0.4-0.3,0.1-0.6c0,0-0.1-0.1-0.2-0.1c0.2-0.1,0.5-0.4,0.8-0.7c0.1,0.2,0.1,0.4,0.2,0.5
	C32,26.9,31.9,27,31.8,27c-0.3,0.4,0,0.7,0.2,0.5c0.1-0.1,0.2-0.2,0.3-0.3c0.2,0.4,0.6,0.7,1.4,0.5c1-0.2,1.8-0.8,1.8-1.7
	c0-0.4-0.4-0.4-0.8,0.2c-0.3,0.4-0.5,1-1.2,0.8c-0.3-0.1-0.5-0.3-0.6-0.6c0.6-1.2,0.7-2.4,0.7-2.9c0-0.7-0.2-1-0.7-0.8
	c-0.3,0.2-1,0.6-1.4,1c-0.1,0-0.2-0.1-0.2-0.2c-0.2-0.1-0.4-0.1-0.7-0.1c-0.4,0-0.7,0.1-0.4,0.4c0.4,0.5,0.5,0.1,0.8,0.5
	c-0.6,1-0.8,1.6-0.7,2C30.2,26.2,30,26,29.9,26c-0.3-0.2-0.5,0.3-0.3,0.4C29.8,26.4,30.3,27.2,31.2,27.6 M32.5,23.5
	c0.5-0.4,0.7-0.3,0.7,0c0,1-0.2,1.7-0.4,2.3c-0.1-0.2-0.1-0.4-0.2-0.6c0.2-0.2,0.3-0.4,0.4-0.6c0.2-0.5-0.3-0.7-0.5-0.4
	c0,0.1-0.1,0.2-0.2,0.3c-0.1-0.2-0.2-0.4-0.3-0.5C32.2,23.8,32.4,23.6,32.5,23.5 M31.4,24.8c0.1,0.2,0.2,0.4,0.3,0.7
	c-0.4,0.6-0.6,0.8-0.6,0.8C30.8,25.9,31,25.3,31.4,24.8"/>
<path fill="#0C318E" d="M66.8,69.9l0.4-0.3c0.1-0.1,0.1-0.2,0-0.3c-0.1-0.1-0.2-0.1-0.3,0l-1,0.8c-0.1,0.1-0.2,0.2,0,0.3
	c0.1,0,0.1,0.2,0.3,0l0.3-0.2l2.1,2.2c0.1,0.1,0.2,0.1,0.3,0c0.1-0.1,0.1-0.2,0-0.3L66.8,69.9z"/>
<path fill="#0C318E" d="M66,73.5c-0.2,1.4-1.3,1.6-2.2,0.4C63.4,73,63.5,72.4,64,72c0.2-0.1,0.5,0,0.8,0.1c0.1,0,0.2,0,0.2,0
	c0.1-0.1,0.1-0.2,0-0.3c-0.6-0.4-1-0.4-1.3-0.1c-1.5,1,0.1,4.3,2,3.2c0.6-0.3,0.8-1.3,0.7-1.6C66.2,73,66,73.3,66,73.5"/>
<path fill="#0C318E" d="M62.2,72.7c-0.1-0.1-0.2-0.2-0.3-0.1c-0.1,0.1-0.1,0.2,0,0.4l1.8,2.8c0.1,0.1,0.2,0.1,0.3,0
	c0.1-0.1,0.2-0.2,0.1-0.3L62.2,72.7z"/>
<path fill="#0C318E" d="M72.1,67.4c0.2,1.4-0.8,1.9-2,1c-0.7-0.7-0.8-1.3-0.4-1.8c0.1-0.2,0.5-0.1,0.8-0.1c0.1,0,0.2,0,0.2-0.1
	c0-0.1,0-0.2-0.1-0.3c-0.6-0.2-1,0-1.3,0.3c-1.1,1.4,1.3,4.1,2.8,2.5c0.4-0.5,0.4-1.4,0.2-1.7C72.1,67,72,67.2,72.1,67.4"/>
<path fill="#0C318E" d="M70.4,70.2l-0.8,0.7l-0.8-0.8l0.7-0.6c0.1-0.1,0.1-0.2,0-0.3c-0.1-0.1-0.2-0.1-0.3,0l-0.7,0.6l-0.8-0.8
	l0.8-0.7c0.1-0.1,0.1-0.2,0-0.3c-0.1-0.1-0.2-0.1-0.3,0l-1,0.8c-0.1,0.1-0.1,0.2,0,0.3l2.2,2.2c0.1,0.1,0.2,0.1,0.3,0l1-0.8
	c0.1-0.1,0.1-0.2,0-0.3C70.6,70.1,70.5,70.1,70.4,70.2"/>
<path fill="#0C318E" d="M54,76.2l-1.4,0.2c-0.1,0-0.2,0.1-0.2,0.2c0.1,0.2,0,0.2,0.2,0.2l0.4-0.1l0.6,3c0,0.1,0.1,0.2,0.2,0.2
	c0.2,0,0.2-0.1,0.2-0.2l-0.6-3l0.5-0.1c0.1,0,0.2-0.1,0.2-0.2C54.2,76.2,54.1,76.2,54,76.2"/>
<path fill="#0C318E" d="M20.8,54.7c0.2,0,0.2-0.2,0.2-0.3c0-0.1-0.1-0.2-0.3-0.2L17.5,55c-0.2,0-0.2,0.1-0.2,0.2
	c0,0.1,0.1,0.2,0.2,0.2L20.8,54.7z"/>
<path fill="#0C318E" d="M57.8,74.9c-0.7,0.4-1,1.4-0.4,2.4c1,2.4,3.6,0.8,2.6-1.4C59.4,74.7,58.5,74.5,57.8,74.9 M57.7,77
	c-0.8-1.6,1-2.8,1.8-1C60.3,77.7,58.6,78.9,57.7,77"/>
<path fill="#0C318E" d="M61.4,73.5c-0.2-0.4-0.4-0.1-0.3,0.2c0.4,0.8,0.7,1.3,1.1,2.1c0,0-2-1.5-2.2-1.6c-0.1-0.1-0.2-0.1-0.3-0.1
	c-0.1,0.1-0.1,0.2,0,0.4c0.4,1,0.9,1.9,1.4,2.9c0.1,0.2,0.5,0.1,0.4-0.2c-0.1-0.2-1.1-2.2-1.1-2.2c0.8,0.6,1.5,1.1,2.3,1.7
	c0.2,0.2,0.5,0,0.4-0.2C62.4,75.4,61.9,74.5,61.4,73.5"/>
<path fill="#0C318E" d="M78.9,49.9l-1.5-0.1l-1.7-0.8c-0.4-0.2-0.6,0.2-0.3,0.4l1.6,0.6l-1.5,0.7c-0.3,0.2-0.2,0.5,0.2,0.4l1.7-0.8
	h1.5C79.1,50.4,79.2,49.9,78.9,49.9"/>
<path fill="#0C318E" d="M52.4,79.2c-0.8,1.2-1.9,0.8-2.1-0.7c0-0.9,0.4-1.4,1-1.5c0.2,0,0.4,0.3,0.6,0.4c0.1,0,0.2,0.1,0.2,0.1
	c0.1,0,0.1-0.1,0.1-0.2c-0.3-0.6-0.7-0.8-1.1-0.7c-1.8,0.2-1.9,3.8,0.2,3.8c0.6,0,1.3-0.8,1.4-1.1C52.8,78.9,52.5,79,52.4,79.2"/>
<path fill="#0C318E" d="M77.9,51.8c-0.4-0.3-1-0.4-1-0.1l-0.2,1.2c0,0.1,0,0.2,0.2,0.2c0.2,0,0.2,0,0.2-0.2l0.2-1l0.2,0.1
	c1.2,0.4,0.8,2-0.8,1.7c-1.7-0.2-1.4-1.7-0.6-1.9c0.2-0.1,0.2-0.4-0.1-0.4c-1,0.3-1.3,1.2-1,1.9c0.5,0.9,2.2,1.2,3.1,0.4
	C79,53.1,78.6,52.2,77.9,51.8"/>
<path fill="#0C318E" d="M71.8,64c-0.3-0.2-0.5,0.1-0.2,0.3l1,0.7l-0.6,0.9l-1-0.7c-0.2-0.2-0.5,0.1-0.2,0.3l2.4,1.8
	c0.2,0.2,0.4-0.2,0.2-0.4l-1.1-0.8l0.6-1l1.3,0.8c0.2,0.2,0.4-0.2,0.2-0.3L71.8,64z"/>
<path fill="#0C318E" d="M76.6,54.6c-1.3-0.2-2,0.4-2.1,1.2c0,0.8,0.6,1.6,1.8,1.8C78.9,58.1,79,55,76.6,54.6 M76.3,57.1
	c-1.7-0.3-1.7-2.4,0.3-2.1C78.3,55.3,78.3,57.4,76.3,57.1"/>
<path fill="#0C318E" d="M48.5,13.8c-19.6-0.4-35.8,15.3-36.2,34.8c-0.4,19.6,15.3,35.8,34.8,36.1c19.6,0.4,35.8-15.2,36.2-34.8
	C83.7,30.4,68,14.2,48.5,13.8 M47.2,84.2c-19.3-0.4-34.7-16.4-34.4-35.6C13.1,29.4,29.2,14,48.5,14.3c19.3,0.4,34.7,16.4,34.3,35.6
	C82.5,69.2,66.4,84.6,47.2,84.2"/>
<path fill="#0C318E" d="M72.7,61.6c-0.4-0.2-0.4,0.2-0.1,0.4c0.7,0.4,1.3,0.7,2,1.1c0,0-2.5,0-2.7-0.1c-0.2,0-0.3,0-0.3,0.1
	c0,0.1,0,0.2,0.1,0.3c0.9,0.6,1.8,1.1,2.8,1.6c0.2,0.2,0.4-0.2,0.2-0.4c-0.2-0.1-2.2-1.2-2.2-1.2c1,0.1,1.9,0.1,2.9,0.1
	c0.2,0,0.4-0.3,0.2-0.4C74.6,62.6,73.7,62.2,72.7,61.6"/>
<path fill="#0C318E" d="M77.2,58l-0.3,0.9l-2.9-1c-0.1,0-0.2,0-0.3,0.1c0,0.1,0,0.2,0.2,0.3l3,1.1c0.2,0.1,0.3,0,0.3-0.1l0.4-1.2
	c0-0.1,0-0.2-0.1-0.3C77.3,57.9,77.3,57.9,77.2,58"/>
<path fill="#0C318E" d="M75.3,59.2c-1.2-0.4-2,0.1-2.2,0.8c-0.2,0.7,0.3,1.6,1.4,2C77,63,77.6,60.1,75.3,59.2 M74.6,61.7
	c-1.6-0.6-1.3-2.7,0.6-2C76.9,60.3,76.5,62.3,74.6,61.7"/>
<path fill="#0C318E" d="M56.1,78c1-0.6,0.8-1.7,0.1-2.2c-0.2-0.1-0.4-0.2-0.8-0.1c-0.2,0-0.5,0.2-0.7,0.2c-0.2,0-0.2,0.1-0.2,0.3
	c0.3,1,0.7,2.2,0.9,3.2c0.1,0.3,0.5,0.2,0.5,0c-0.1-0.5-0.1-0.7-0.2-1.1c0.3,0.2,1.2,0.9,1.4,0.9c0.2,0,0.2-0.3,0-0.4
	C56.7,78.4,56.6,78.3,56.1,78 M55.5,77.6c-0.1-0.4-0.3-0.9-0.4-1.4c0.9-0.3,1.1,0,1.2,0.4C56.4,77,56.1,77.6,55.5,77.6"/>
<path fill="#0C318E" d="M24.9,65.1c-0.8,0.4-1.2,0.8-1.9,1.3c0,0,1.2-2.2,1.3-2.4c0.1-0.2,0.1-0.3,0-0.3c-0.1-0.1-0.2-0.1-0.4,0
	c-0.9,0.6-1.8,1.1-2.7,1.7c-0.2,0.2,0,0.5,0.3,0.3c0.1-0.1,2.1-1.3,2.1-1.3c-0.5,0.8-1,1.6-1.4,2.5c-0.1,0.2,0.1,0.5,0.3,0.4
	c0.9-0.6,1.7-1.2,2.7-1.8C25.5,65.2,25.2,64.9,24.9,65.1"/>
<path fill="#0C318E" d="M27.3,67.9c-0.8,0.4-1.6,0.7-2.4,1.1c0.5-0.8,1-1.6,1.3-2.1c0.2-0.4-0.2-0.6-0.4-0.3c-0.5,0.9-1,1.8-1.6,2.6
	c-0.2,0.3,0,0.5,0.3,0.4c1-0.4,2-0.8,3-1.3C27.8,68.2,27.7,67.7,27.3,67.9"/>
<path fill="#0C318E" d="M25.9,65.9c-0.1-0.1-0.2-0.1-0.3,0l-2.7,2c-0.1,0.1-0.1,0.2,0,0.3c0.1,0.1,0.2,0.1,0.3,0l2.7-2
	C26,66.2,26,66,25.9,65.9"/>
<path fill="#0C318E" d="M27.3,70.6c0.1,0.1,0.2,0.1,0.3,0c0.1-0.1,0.1-0.2,0-0.3L27,69.6l0.8-0.8l0.7,0.8c0.1,0.1,0.2,0.1,0.3,0
	c0.1-0.1,0.1-0.2,0-0.3l-0.8-1c-0.1-0.1-0.2-0.1-0.3,0l-2.2,2.1c-0.1,0.1-0.1,0.2,0,0.4l0.8,1c0.1,0.1,0.2,0.1,0.3,0
	c0.1-0.1,0.1-0.2,0-0.3l-0.7-0.8l0.8-0.8L27.3,70.6z"/>
<path fill="#0C318E" d="M21.5,57.4c0.1,0,0.2-0.1,0.2-0.3C21.6,57,21.5,57,21.3,57l-3.2,1C18,58,18,58.1,18,58.3
	c0,0.1,0.1,0.2,0.3,0.2L21.5,57.4z"/>
<path fill="#0C318E" d="M30.2,70.9c0-0.2-0.1-0.5-0.3-0.7c-0.2-0.2-0.4-0.3-0.6-0.5c-0.1-0.1-0.2-0.1-0.3,0
	c-0.6,0.8-1.5,1.8-2.2,2.6c-0.2,0.2,0.1,0.5,0.3,0.4c0.4-0.3,0.5-0.4,0.8-0.8c0,0.3-0.1,1.5,0.1,1.7c0.1,0.2,0.4,0,0.4-0.2
	c0-0.5,0-0.7,0-1.3C29.5,72.5,30.3,71.7,30.2,70.9 M28.3,71.3c0.3-0.4,0.6-0.8,0.9-1.1c0.7,0.6,0.6,0.9,0.4,1.3
	C29.3,71.8,28.7,71.8,28.3,71.3"/>
<path fill="#0C318E" d="M18.2,57.4l-0.2-1l3-0.6c0.2,0,0.2-0.1,0.2-0.2c0-0.2-0.2-0.2-0.3-0.2l-3.2,0.7c-0.2,0-0.2,0.1-0.2,0.3
	l0.3,1.2c0,0.1,0.1,0.2,0.2,0.2C18.2,57.6,18.2,57.5,18.2,57.4"/>
<path fill="#0C318E" d="M22,59.6c-0.8,0.3-1.4,0.6-2.2,0.9c0,0,1.6-1.9,1.8-2c0.1-0.1,0.2-0.2,0.1-0.3c-0.1-0.1-0.2-0.2-0.4-0.1
	c-1,0.4-2,0.7-3,1.1c-0.2,0.1-0.1,0.5,0.2,0.4c0.2-0.1,2.3-0.9,2.3-0.9c-0.7,0.7-1.3,1.4-1.9,2.2c-0.2,0.2,0,0.5,0.2,0.4
	c1-0.4,2-0.8,3-1.3C22.6,59.8,22.3,59.5,22,59.6"/>
<path fill="#0C318E" d="M21.8,64.4l1.9-1.2c0.3-0.2,0.1-0.5-0.2-0.4l-2,1.2c-0.8,0.5-1.2-0.5-0.6-0.9l2-1.2c0.3-0.2,0.1-0.5-0.2-0.4
	l-2,1.2C19.8,63.5,20.5,65.2,21.8,64.4"/>
<path fill="#0C318E" d="M42.2,76.3L41,76c-0.2,0-0.3,0-0.3,0.2l-0.6,3.2c0,0.2,0,0.2,0.2,0.2c0.1,0,0.2,0,0.2-0.1l0.3-1.4l0.9,0.2
	c0.1,0,0.2,0,0.2-0.2c0-0.1,0-0.2-0.2-0.2l-0.9-0.2l0.2-1.2l1,0.2c0.2,0,0.2,0,0.3-0.2C42.4,76.5,42.4,76.4,42.2,76.3"/>
<path fill="#0C318E" d="M45.5,76.8l-1.2-0.2c-0.2,0-0.3,0-0.3,0.2l-0.4,3c0,0.2,0,0.2,0.2,0.3l1.2,0.2c0.1,0,0.2,0,0.2-0.2
	c0-0.1,0-0.2-0.2-0.2l-1-0.2l0.2-1.2l1,0.2c0.1,0,0.2,0,0.2-0.1c0-0.2-0.1-0.2-0.2-0.3l-1-0.2l0.2-1.2l1,0.2c0.1,0,0.2,0,0.2-0.2
	C45.7,76.9,45.6,76.8,45.5,76.8"/>
<path fill="#0C318E" d="M39,75.3c-0.8-0.2-1.6,0.4-1.9,1.6c-0.7,2.5,2.3,3,2.9,0.6C40.4,76.2,39.8,75.4,39,75.3 M39.6,77.4
	c-0.5,1.8-2.5,1.6-2-0.5C37.9,75.2,40.1,75.4,39.6,77.4"/>
<path fill="#0C318E" d="M49.4,80l-1.1,0v-1.2l1,0c0.1,0,0.2,0,0.2-0.2c0-0.1-0.1-0.2-0.2-0.2l-1,0l0-1.2l1.1,0c0.1,0,0.2,0,0.2-0.2
	c0-0.1-0.1-0.2-0.2-0.2l-1.3,0c-0.2,0-0.2,0-0.2,0.2l0,3.1c0,0.1,0,0.2,0.2,0.2l1.2,0c0.1,0,0.2,0,0.2-0.2
	C49.6,80.1,49.5,80,49.4,80"/>
<path fill="#0C318E" d="M47.3,79.9l-1,0l0.2-3c0-0.2,0-0.2-0.2-0.2c-0.1,0-0.2,0.1-0.2,0.2L45.8,80c0,0.2,0,0.2,0.2,0.2l1.2,0.1
	c0.1,0,0.2-0.1,0.2-0.2C47.5,80,47.4,79.9,47.3,79.9"/>
<path fill="#0C318E" d="M36.3,74.3l-1.2,1.2L35,73.8c0-0.3-0.4-0.4-0.4,0v1.9L34,77.1c-0.1,0.2,0.3,0.5,0.4,0.2L35,76l1.4-1.2
	C36.8,74.5,36.5,74.1,36.3,74.3"/>
<path fill="#0C318E" d="M32.8,72.3c-0.1-0.1-0.2,0-0.3,0.1l-1.8,2.8c-0.1,0.1,0,0.2,0.1,0.3c0.1,0.1,0.2,0,0.3,0l1.8-2.8
	C32.9,72.5,32.9,72.4,32.8,72.3"/>
<path fill="#0C318E" d="M34.6,73.8c0.1-0.1,0-0.2-0.1-0.3l-1.1-0.7c-0.1-0.1-0.3-0.1-0.3,0.1c0,0.2-0.2,0.2,0.1,0.3l0.3,0.2L32,76
	c0,0.1,0,0.2,0.1,0.3c0.1,0.1,0.2,0.1,0.3,0l1.5-2.7l0.4,0.3C34.4,73.9,34.6,73.9,34.6,73.8"/>
<path fill="#0C318E" d="M30.5,72.7c-0.3-0.5,0.3-1.2,0.8-0.8c0.2,0.2-0.2,0.7,0.1,0.8c0.6,0.3,0.5-0.9,0.2-1.2
	c-0.6-0.4-1.2,0-1.4,0.4c-0.2,0.4-0.1,0.8,0.1,1.3c0.2,0.6-0.3,1.3-0.8,0.8c-0.4-0.5,0.5-0.7,0.1-1c-0.3-0.2-1,0.8-0.4,1.4
	c0.5,0.4,1,0.4,1.4-0.2C30.9,73.8,30.8,73.2,30.5,72.7"/>
<path fill-rule="evenodd" clip-rule="evenodd" fill="#0C318E" d="M116.1,70.8v-1.3h2.8v3c-0.3,0.3-0.7,0.6-1.2,0.8
	c-0.5,0.2-1,0.4-1.6,0.4c-0.7,0-1.3-0.2-1.7-0.5c-0.5-0.4-0.9-0.8-1.1-1.4c-0.2-0.6-0.4-1.3-0.4-2c0-0.8,0.1-1.5,0.4-2.1
	c0.3-0.6,0.7-1.1,1.3-1.4c0.4-0.3,0.9-0.4,1.5-0.4c0.8,0,1.4,0.2,1.9,0.6c0.4,0.4,0.7,0.9,0.9,1.6l-1.3,0.3
	c-0.1-0.4-0.3-0.7-0.5-0.9c-0.2-0.2-0.6-0.3-0.9-0.3c-0.6,0-1,0.2-1.4,0.6c-0.3,0.4-0.5,1-0.5,1.8c0,0.9,0.2,1.6,0.5,2
	c0.4,0.4,0.8,0.6,1.3,0.6c0.3,0,0.6,0,0.8-0.2c0.3-0.1,0.5-0.3,0.7-0.5v-0.9H116.1z"/>
<path fill-rule="evenodd" clip-rule="evenodd" fill="#0C318E" d="M121.3,66.1h1.3v4c0,0.7,0,1.1,0,1.3c0,0.3,0.2,0.6,0.4,0.7
	c0.2,0.2,0.5,0.3,0.8,0.3c0.4,0,0.7-0.1,0.9-0.2c0.2-0.2,0.3-0.4,0.3-0.6c0-0.3,0-0.7,0-1.3v-4.1h1.3V70c0,0.9,0,1.5-0.1,1.9
	c-0.1,0.4-0.2,0.7-0.4,0.9c-0.2,0.2-0.4,0.4-0.8,0.6c-0.3,0.2-0.7,0.2-1.3,0.2c-0.6,0-1.1-0.1-1.4-0.2c-0.3-0.2-0.6-0.4-0.8-0.6
	c-0.2-0.3-0.3-0.6-0.4-0.8c-0.1-0.4-0.1-1.1-0.1-1.9V66.1z"/>
<rect x="129" y="66.1" fill-rule="evenodd" clip-rule="evenodd" fill="#0C318E" width="1.3" height="7.4"/>
<polygon fill-rule="evenodd" clip-rule="evenodd" fill="#0C318E" points="132.8,73.5 132.8,66.1 134.1,66.1 134.1,72.3 137.3,72.3 
	137.3,73.5 "/>
<rect x="139.4" y="66.1" fill-rule="evenodd" clip-rule="evenodd" fill="#0C318E" width="1.3" height="7.4"/>
<polygon fill-rule="evenodd" clip-rule="evenodd" fill="#0C318E" points="143.2,73.5 143.2,66.1 144.4,66.1 147.1,71 147.1,66.1 
	148.3,66.1 148.3,73.5 147,73.5 144.4,68.7 144.4,73.5 "/>
<path fill-rule="evenodd" clip-rule="evenodd" fill="#0C318E" d="M154.1,66.1h1.3v4c0,0.7,0,1.1,0,1.3c0,0.3,0.2,0.6,0.4,0.7
	c0.2,0.2,0.5,0.3,0.9,0.3c0.4,0,0.6-0.1,0.8-0.2c0.2-0.2,0.3-0.4,0.3-0.6c0-0.3,0.1-0.7,0.1-1.3v-4.1h1.3V70c0,0.9,0,1.5-0.1,1.9
	c-0.1,0.4-0.2,0.7-0.4,0.9c-0.2,0.2-0.4,0.4-0.8,0.6c-0.3,0.2-0.8,0.2-1.2,0.2c-0.6,0-1.1-0.1-1.4-0.2c-0.3-0.2-0.6-0.4-0.8-0.6
	c-0.2-0.3-0.3-0.6-0.4-0.8c-0.1-0.4-0.1-1.1-0.1-1.9V66.1z"/>
<polygon fill-rule="evenodd" clip-rule="evenodd" fill="#0C318E" points="161.7,73.5 161.7,66.1 162.9,66.1 165.6,71 165.6,66.1 
	166.8,66.1 166.8,73.5 165.5,73.5 162.9,68.7 162.9,73.5 "/>
<rect x="169.2" y="66.1" fill-rule="evenodd" clip-rule="evenodd" fill="#0C318E" width="1.3" height="7.4"/>
<polygon fill-rule="evenodd" clip-rule="evenodd" fill="#0C318E" points="174.4,73.5 172.1,66.1 173.5,66.1 175.2,71.6 176.7,66.1 
	178.1,66.1 175.8,73.5 "/>
<polygon fill-rule="evenodd" clip-rule="evenodd" fill="#0C318E" points="179.9,73.5 179.9,66.1 184.6,66.1 184.6,67.3 181.1,67.3 
	181.1,69 184.4,69 184.4,70.2 181.1,70.2 181.1,72.3 184.7,72.3 184.7,73.5 "/>
<path fill-rule="evenodd" clip-rule="evenodd" fill="#0C318E" d="M186.9,73.5v-7.4h2.7c0.7,0,1.2,0,1.5,0.2c0.3,0.1,0.6,0.4,0.8,0.7
	c0.2,0.3,0.3,0.7,0.3,1.1c0,0.6-0.1,1-0.4,1.4c-0.3,0.4-0.7,0.6-1.3,0.7c0.3,0.2,0.5,0.4,0.7,0.6c0.2,0.2,0.4,0.6,0.7,1.2l0.8,1.5
	h-1.5l-0.9-1.6c-0.3-0.6-0.6-0.9-0.7-1.1c-0.1-0.2-0.2-0.2-0.4-0.3c-0.1,0-0.4-0.1-0.6-0.1h-0.3v3.1H186.9z M188.2,69.2h0.9
	c0.6,0,1,0,1.2-0.1c0.2-0.1,0.3-0.2,0.4-0.3c0.1-0.2,0.1-0.4,0.1-0.6c0-0.3,0-0.5-0.2-0.6c-0.1-0.1-0.3-0.2-0.5-0.3
	c-0.1,0-0.4,0-0.9,0h-1V69.2z"/>
<path fill-rule="evenodd" clip-rule="evenodd" fill="#0C318E" d="M194.1,71.1l1.3-0.2c0.1,0.5,0.2,0.8,0.4,1.1
	c0.2,0.2,0.6,0.4,1,0.4c0.4,0,0.8-0.1,0.9-0.3c0.2-0.2,0.3-0.4,0.3-0.7c0-0.2,0-0.3-0.1-0.4c-0.1-0.1-0.2-0.2-0.5-0.3
	c-0.2-0.1-0.5-0.2-1-0.4c-0.7-0.2-1.2-0.4-1.5-0.7c-0.4-0.4-0.6-0.9-0.6-1.5c0-0.4,0.1-0.7,0.3-1.1c0.2-0.3,0.4-0.6,0.8-0.8
	c0.4-0.2,0.7-0.3,1.3-0.3c0.8,0,1.4,0.2,1.8,0.6c0.4,0.4,0.6,1,0.6,1.6l-1.3,0.1c0-0.4-0.2-0.7-0.4-0.8c-0.2-0.2-0.4-0.2-0.8-0.2
	c-0.4,0-0.7,0.1-0.9,0.3c-0.1,0.1-0.2,0.2-0.2,0.4c0,0.2,0.1,0.4,0.2,0.5c0.2,0.2,0.6,0.3,1.2,0.5c0.6,0.2,1.1,0.4,1.4,0.6
	c0.3,0.2,0.5,0.4,0.7,0.8c0.2,0.3,0.3,0.7,0.3,1.2c0,0.4-0.1,0.8-0.3,1.2c-0.2,0.4-0.5,0.7-0.9,0.8c-0.4,0.2-0.8,0.3-1.4,0.3
	c-0.8,0-1.4-0.2-1.9-0.6C194.4,72.6,194.2,71.9,194.1,71.1"/>
<rect x="201.5" y="66.1" fill-rule="evenodd" clip-rule="evenodd" fill="#0C318E" width="1.3" height="7.4"/>
<polygon fill-rule="evenodd" clip-rule="evenodd" fill="#0C318E" points="206.5,73.5 206.5,67.3 204.6,67.3 204.6,66.1 209.7,66.1 
	209.7,67.3 207.8,67.3 207.8,73.5 "/>
<polygon fill-rule="evenodd" clip-rule="evenodd" fill="#0C318E" points="213.3,73.5 213.3,70.4 211,66.1 212.5,66.1 214,69 
	215.5,66.1 217,66.1 214.6,70.4 214.6,73.5 "/>
<path fill-rule="evenodd" clip-rule="evenodd" fill="#0C318E" d="M222,69.8c0-0.8,0.1-1.4,0.3-1.9c0.2-0.4,0.4-0.7,0.6-1
	c0.2-0.3,0.5-0.6,0.8-0.7c0.4-0.2,0.8-0.3,1.4-0.3c1,0,1.7,0.4,2.3,1c0.6,0.7,0.9,1.6,0.9,2.8c0,1.2-0.3,2.1-0.9,2.8
	c-0.6,0.7-1.3,1-2.3,1c-0.9,0-1.7-0.4-2.3-1C222.3,71.9,222,71,222,69.8 M223.4,69.8c0,0.8,0.2,1.5,0.5,1.9c0.3,0.4,0.8,0.6,1.3,0.6
	c0.5,0,1-0.2,1.3-0.6c0.3-0.4,0.5-1.1,0.5-1.9c0-0.9-0.2-1.5-0.5-1.9c-0.3-0.4-0.8-0.6-1.3-0.6c-0.6,0-1,0.2-1.3,0.6
	C223.5,68.3,223.4,68.9,223.4,69.8"/>
<polygon fill-rule="evenodd" clip-rule="evenodd" fill="#0C318E" points="230.6,73.5 230.6,66.1 234.9,66.1 234.9,67.3 231.8,67.3 
	231.8,69.1 234.5,69.1 234.5,70.4 231.8,70.4 231.8,73.5 "/>
<polygon fill-rule="evenodd" clip-rule="evenodd" fill="#0C318E" points="239.8,73.5 239.8,66.1 244.6,66.1 244.6,67.3 241.2,67.3 
	241.2,69 244.4,69 244.4,70.2 241.2,70.2 241.2,72.3 244.8,72.3 244.8,73.5 "/>
<polygon fill-rule="evenodd" clip-rule="evenodd" fill="#0C318E" points="246.8,73.5 246.8,66.1 248.1,66.1 248.1,72.3 251.3,72.3 
	251.3,73.5 "/>
<polygon fill-rule="evenodd" clip-rule="evenodd" fill="#0C318E" points="253.1,73.5 253.1,66.1 257.9,66.1 257.9,67.3 254.4,67.3 
	254.4,69 257.6,69 257.6,70.2 254.4,70.2 254.4,72.3 258,72.3 258,73.5 "/>
<path fill-rule="evenodd" clip-rule="evenodd" fill="#0C318E" d="M264.1,70.8l1.3,0.4c-0.2,0.8-0.5,1.4-1,1.8
	c-0.4,0.4-1,0.6-1.7,0.6c-0.8,0-1.5-0.4-2.1-1c-0.6-0.7-0.8-1.6-0.8-2.8c0-1.2,0.3-2.2,0.8-2.9c0.6-0.7,1.3-1,2.2-1
	c0.8,0,1.4,0.3,1.9,0.8c0.3,0.3,0.5,0.8,0.6,1.3l-1.3,0.4c-0.1-0.4-0.2-0.7-0.5-0.9c-0.2-0.2-0.6-0.3-0.9-0.3
	c-0.5,0-0.9,0.2-1.2,0.6c-0.3,0.4-0.4,1-0.4,1.9c0,0.9,0.2,1.6,0.4,2c0.3,0.4,0.7,0.6,1.1,0.6c0.4,0,0.6-0.1,0.9-0.4
	C263.9,71.7,264,71.3,264.1,70.8"/>
<polygon fill-rule="evenodd" clip-rule="evenodd" fill="#0C318E" points="268.8,73.5 268.8,67.3 266.9,67.3 266.9,66.1 272,66.1 
	272,67.3 270.1,67.3 270.1,73.5 "/>
<path fill-rule="evenodd" clip-rule="evenodd" fill="#0C318E" d="M273.8,73.5v-7.4h2.7c0.7,0,1.2,0,1.5,0.2c0.3,0.1,0.6,0.4,0.8,0.7
	c0.2,0.3,0.3,0.7,0.3,1.1c0,0.6-0.2,1-0.4,1.4c-0.3,0.4-0.7,0.6-1.3,0.7c0.3,0.2,0.5,0.4,0.7,0.6c0.2,0.2,0.4,0.6,0.7,1.2l0.8,1.5
	H278l-1-1.6c-0.3-0.6-0.6-0.9-0.7-1.1c-0.1-0.2-0.2-0.2-0.4-0.3c-0.1,0-0.4-0.1-0.6-0.1h-0.3v3.1H273.8z M275.1,69.2h0.9
	c0.6,0,1,0,1.2-0.1c0.2-0.1,0.3-0.2,0.4-0.3s0.1-0.4,0.1-0.6c0-0.3,0-0.5-0.2-0.6c-0.1-0.1-0.3-0.2-0.5-0.3c-0.1,0-0.4,0-0.9,0h-1
	V69.2z"/>
<path fill-rule="evenodd" clip-rule="evenodd" fill="#0C318E" d="M280.9,69.8c0-0.8,0.1-1.4,0.3-1.9c0.2-0.4,0.4-0.7,0.6-1
	c0.2-0.3,0.5-0.6,0.8-0.7c0.4-0.2,0.8-0.3,1.4-0.3c0.9,0,1.7,0.4,2.3,1c0.6,0.7,0.9,1.6,0.9,2.8c0,1.2-0.3,2.1-0.9,2.8
	c-0.6,0.7-1.3,1-2.3,1c-1,0-1.7-0.4-2.3-1C281.2,71.9,280.9,71,280.9,69.8 M282.2,69.8c0,0.8,0.2,1.5,0.5,1.9
	c0.3,0.4,0.8,0.6,1.3,0.6c0.5,0,0.9-0.2,1.3-0.6c0.4-0.4,0.5-1.1,0.5-1.9c0-0.9-0.2-1.5-0.5-1.9c-0.4-0.4-0.8-0.6-1.3-0.6
	c-0.6,0-1,0.2-1.3,0.6C282.4,68.3,282.2,68.9,282.2,69.8"/>
<polygon fill-rule="evenodd" clip-rule="evenodd" fill="#0C318E" points="289,73.5 289,66.1 290.3,66.1 293,71 293,66.1 294.1,66.1 
	294.1,73.5 292.8,73.5 290.3,68.7 290.3,73.5 "/>
<rect x="296.4" y="66.1" fill-rule="evenodd" clip-rule="evenodd" fill="#0C318E" width="1.3" height="7.4"/>
<path fill-rule="evenodd" clip-rule="evenodd" fill="#0C318E" d="M304,70.8l1.2,0.4c-0.2,0.8-0.5,1.4-0.9,1.8
	c-0.4,0.4-1,0.6-1.7,0.6c-0.9,0-1.5-0.4-2.1-1c-0.6-0.7-0.8-1.6-0.8-2.8c0-1.2,0.3-2.2,0.8-2.9c0.6-0.7,1.3-1,2.2-1
	c0.8,0,1.4,0.3,1.9,0.8c0.3,0.3,0.5,0.8,0.7,1.3l-1.3,0.4c0-0.4-0.2-0.7-0.5-0.9c-0.2-0.2-0.5-0.3-0.9-0.3c-0.5,0-0.9,0.2-1.1,0.6
	c-0.3,0.4-0.4,1-0.4,1.9c0,0.9,0.1,1.6,0.4,2c0.3,0.4,0.7,0.6,1.1,0.6c0.4,0,0.7-0.1,0.9-0.4C303.6,71.7,303.8,71.3,304,70.8"/>
<polygon fill-rule="evenodd" clip-rule="evenodd" fill="#0C318E" points="312,73.5 312,67.3 310.1,67.3 310.1,66.1 315.2,66.1 
	315.2,67.3 313.3,67.3 313.3,73.5 "/>
<polygon fill-rule="evenodd" clip-rule="evenodd" fill="#0C318E" points="316.9,73.5 316.9,66.1 321.7,66.1 321.7,67.3 318.2,67.3 
	318.2,69 321.5,69 321.5,70.2 318.2,70.2 318.2,72.3 321.8,72.3 321.8,73.5 "/>
<path fill-rule="evenodd" clip-rule="evenodd" fill="#0C318E" d="M327.9,70.8l1.3,0.4c-0.2,0.8-0.5,1.4-1,1.8
	c-0.4,0.4-1,0.6-1.7,0.6c-0.8,0-1.5-0.4-2.1-1c-0.6-0.7-0.8-1.6-0.8-2.8c0-1.2,0.3-2.2,0.8-2.9c0.6-0.7,1.3-1,2.2-1
	c0.8,0,1.4,0.3,1.9,0.8c0.3,0.3,0.5,0.8,0.6,1.3l-1.3,0.4c-0.1-0.4-0.2-0.7-0.5-0.9c-0.2-0.2-0.6-0.3-0.9-0.3
	c-0.5,0-0.9,0.2-1.2,0.6c-0.3,0.4-0.4,1-0.4,1.9c0,0.9,0.2,1.6,0.4,2c0.3,0.4,0.7,0.6,1.1,0.6c0.4,0,0.6-0.1,0.9-0.4
	C327.6,71.7,327.8,71.3,327.9,70.8"/>
<polygon fill-rule="evenodd" clip-rule="evenodd" fill="#0C318E" points="331.2,73.5 331.2,66.1 332.5,66.1 332.5,69 335,69 
	335,66.1 336.3,66.1 336.3,73.5 335,73.5 335,70.2 332.5,70.2 332.5,73.5 "/>
<polygon fill-rule="evenodd" clip-rule="evenodd" fill="#0C318E" points="338.5,73.5 338.5,66.1 339.8,66.1 342.4,71 342.4,66.1 
	343.6,66.1 343.6,73.5 342.3,73.5 339.7,68.7 339.7,73.5 "/>
<path fill-rule="evenodd" clip-rule="evenodd" fill="#0C318E" d="M345.6,69.8c0-0.8,0.1-1.4,0.3-1.9c0.2-0.4,0.4-0.7,0.6-1
	c0.2-0.3,0.5-0.6,0.8-0.7c0.4-0.2,0.9-0.3,1.4-0.3c1,0,1.7,0.4,2.3,1c0.6,0.7,0.8,1.6,0.8,2.8c0,1.2-0.3,2.1-0.8,2.8
	c-0.6,0.7-1.3,1-2.3,1c-1,0-1.7-0.4-2.3-1C345.9,71.9,345.6,71,345.6,69.8 M346.9,69.8c0,0.8,0.2,1.5,0.5,1.9
	c0.3,0.4,0.8,0.6,1.3,0.6c0.5,0,1-0.2,1.3-0.6c0.3-0.4,0.5-1.1,0.5-1.9c0-0.9-0.2-1.5-0.5-1.9c-0.3-0.4-0.7-0.6-1.3-0.6
	c-0.5,0-0.9,0.2-1.3,0.6C347.1,68.3,346.9,68.9,346.9,69.8"/>
<polygon fill-rule="evenodd" clip-rule="evenodd" fill="#0C318E" points="353.8,73.5 353.8,66.1 355.1,66.1 355.1,72.3 358.3,72.3 
	358.3,73.5 "/>
<path fill-rule="evenodd" clip-rule="evenodd" fill="#0C318E" d="M359.8,69.8c0-0.8,0.1-1.4,0.3-1.9c0.2-0.4,0.4-0.7,0.6-1
	c0.3-0.3,0.6-0.6,0.8-0.7c0.4-0.2,0.9-0.3,1.4-0.3c0.9,0,1.7,0.4,2.3,1c0.6,0.7,0.9,1.6,0.9,2.8c0,1.2-0.3,2.1-0.9,2.8
	c-0.6,0.7-1.3,1-2.3,1c-1,0-1.7-0.4-2.3-1C360.1,71.9,359.8,71,359.8,69.8 M361.2,69.8c0,0.8,0.2,1.5,0.5,1.9
	c0.4,0.4,0.8,0.6,1.3,0.6c0.5,0,1-0.2,1.3-0.6c0.3-0.4,0.5-1.1,0.5-1.9c0-0.9-0.2-1.5-0.5-1.9c-0.3-0.4-0.8-0.6-1.3-0.6
	c-0.6,0-1,0.2-1.3,0.6C361.3,68.3,361.2,68.9,361.2,69.8"/>
<path fill-rule="evenodd" clip-rule="evenodd" fill="#0C318E" d="M370.9,70.8v-1.3h2.8v3c-0.3,0.3-0.7,0.6-1.2,0.8
	c-0.5,0.2-1.1,0.4-1.6,0.4c-0.7,0-1.3-0.2-1.7-0.5c-0.5-0.4-0.9-0.8-1.1-1.4c-0.2-0.6-0.4-1.3-0.4-2c0-0.8,0.1-1.5,0.4-2.1
	c0.3-0.6,0.7-1.1,1.2-1.4c0.4-0.3,0.9-0.4,1.5-0.4c0.8,0,1.4,0.2,1.9,0.6c0.4,0.4,0.7,0.9,0.9,1.6l-1.3,0.3
	c-0.1-0.4-0.3-0.7-0.5-0.9c-0.2-0.2-0.6-0.3-1-0.3c-0.6,0-1,0.2-1.3,0.6c-0.3,0.4-0.5,1-0.5,1.8c0,0.9,0.2,1.6,0.5,2
	c0.4,0.4,0.8,0.6,1.3,0.6c0.3,0,0.6,0,0.8-0.2c0.3-0.1,0.5-0.3,0.7-0.5v-0.9H370.9z"/>
<polygon fill-rule="evenodd" clip-rule="evenodd" fill="#0C318E" points="377.5,73.5 377.5,70.4 375.1,66.1 376.7,66.1 378.2,69 
	379.6,66.1 381.1,66.1 378.8,70.4 378.8,73.5 "/>
<path fill-rule="evenodd" clip-rule="evenodd" fill="#0C318E" d="M199.1,24.9c0.5,0,1.1,0.6,1.3,0.8c0.2,0.3,0.2,0.5,0.5,0.7
	c0.8,0.4,1.9,0.5,2.9,0.7c0.6,0.1,1.3-0.1,1.9,0.1c0.1,0.1,0.3,0.2,0.4,0.3c0.6,0.4,0.9,0.4,1.3,0.9c0.2,0.3,0.7,0.4,0.8,0.9
	c0.1,0.5-0.6,0.9-1,0.9c-0.5,0.1-0.9,0-1.3,0.2c-0.5,0.3-0.5,0.8-0.8,1.3c-0.2,0.3-0.7,1.1-0.1,1.4c0.5,0.4,2.6,0,3.4,0.2
	c0.7,0.1,1.1,0.5,1.7,0.6c0.7,0.1,1.3,0.1,2,0.2c0.5,0.1,1.1,0.3,1.5,0.4c0.4,0.1,0.8,0.1,1.1,0.3c0.1,0.1,0.3,0.3,0.4,0.4
	c0.2,0.1,0.4,0.1,0.5,0.3c0.1,0.2,0.2,0.4,0.2,0.5c0.2,0.3,0.5,0.6,0.6,1c0.1,0.4,0,1-0.3,1.2c-0.1,0.1-0.2,0.1-0.4,0.2
	c-0.4,0.4-0.3,0.6-1.1,0.7c-0.4,0-0.8,0-1.1,0c-0.8,0.1-1.4,0.4-2-0.2c0-0.7,1.4-1.9,0.8-2.5c-0.3-0.3-1.3-0.7-1.8-0.8
	c-0.2,0-0.3,0-0.5,0c-0.5-0.1-0.7-0.4-1-0.6c-0.5-0.1-0.9-0.2-1.4-0.3h-1.2c-0.4-0.1-0.7-0.1-1.1-0.2c-0.6,0-1.3,0.4-1.5,0.8
	c-0.1,0.2-0.1,0.5-0.2,0.7c-0.1,0.4-0.3,1-0.1,1.5c0.2,0.6,1,0.2,1.6,0.3c0.4,0.1,0.7,0.3,1.1,0.4c0.1,0.1,0.2,0.2,0.3,0.3
	c0.2,0.1,0.5,0.1,0.6,0.3c0.1,0.2,0.2,0.3,0.3,0.5c0.2,0.2,0.7,0.5,0.5,1.1c-0.3,1-1,0.3-1.5,0c-0.2-0.1-0.2-0.4-0.4-0.7
	c-0.1-0.1-0.3-0.2-0.4-0.3c-0.3-0.4-0.6-1.1-1.5-1c-0.6,0.1-1,0.7-1.1,1.2v1.4c-0.1,0.5-0.1,1.3,0.1,1.6c0.5,0.7,2.2-0.2,2.9-0.1
	c0.7,0.2,1.4,0.4,2.1,0.5c0.3,0.1,0.6,0.3,0.9,0.4c0.5,0.1,0.8,0,1.2,0.3c0.2,0.1,0.3,0.5,0.4,0.7c0.3,0.3,0.9,0.9,0.8,1.6
	c-0.1,0.6-0.7,0.7-0.9,1.2c-0.1,0.2-0.1,0.4-0.2,0.6c-0.1,0.2-0.3,0.4-0.4,0.6c-0.1,0.3-0.1,0.5-0.2,0.8c-0.2,0.3-0.4,0.6-0.6,0.9
	c-0.3,0.7-0.5,1.6-1.1,2c-0.1,0.1-0.2,0.1-0.4,0.2c-0.1,0.1-0.1,0.2-0.2,0.3c-0.1,0.1-0.3,0.1-0.5,0.1c-0.2,0.1-0.3,0.1-0.5,0.2
	c-0.5,0.1-0.7-0.5-1.1-0.6c-0.5-0.1-1,0-1.1,0.4c-0.1,0.5,0.3,0.6,0.5,0.9c0.1,0.2,0.1,0.4,0.3,0.5c0.1,0.1,0.3,0.2,0.4,0.3
	c0.1,0.1,0.2,0.3,0.3,0.4c0.3,0.1,0.6,0.2,0.8,0.3c0.2,0.1,0.3,0.2,0.5,0.3c0.8,0.2,1.9,0.1,2.4,0.5c0.1,0.1,0.1,0.1,0.2,0.2
	c0.2,0.1,0.5,0.1,0.6,0.3c0.2,0.3,0,1.3-0.2,1.5c-0.2,0.1-0.6,0.5-0.8,0.5c-0.8,0.2-1.6-0.2-2.1-0.3c-0.3-0.1-0.7-0.1-1-0.2
	c-0.3-0.2-0.5-0.4-0.8-0.6c-0.2-0.1-0.4-0.2-0.6-0.3c-0.1-0.1-0.2-0.3-0.3-0.4c-0.2-0.1-0.3-0.2-0.5-0.3c-0.1-0.1-0.2-0.2-0.3-0.4
	c-0.2-0.2-0.4-0.3-0.5-0.4c-0.1-0.2-0.2-0.4-0.2-0.6c-0.2-0.2-0.3-0.2-0.5-0.5c-0.1-0.3-0.2-0.8-0.4-1c-0.2-0.1-0.6-0.4-0.9-0.3
	c-0.6,0.1-1.2,0.9-1.9,0.5c-0.4-0.2-0.3-0.9-0.4-1.4c-0.2-0.3-0.4-0.7-0.6-1c-0.1-0.2-0.1-0.4-0.2-0.6c-0.1-0.1-0.2-0.2-0.4-0.4
	c-0.1-0.2-0.3-0.4-0.4-0.7c-0.1-0.2-0.3-0.3-0.4-0.5c-0.1-0.2-0.1-0.4-0.2-0.6c-0.2-0.3-0.4-0.6-0.6-1c-0.1-0.4-0.3-1.5,0.1-1.7
	c0.1,0,0.1,0,0.1,0c0.1,0.4,0.2,0.8,0.3,1.3c0.1,0.2,0.3,0.3,0.4,0.5c0.1,0.2,0.2,0.4,0.3,0.6c0.1,0.1,0.2,0.2,0.3,0.3
	c0.1,0.2,0.2,0.4,0.2,0.6c0.1,0.1,0.3,0.3,0.4,0.4c0.2,0.3,0.3,0.6,0.5,0.8c0.1,0.1,0.2,0.2,0.4,0.4c0,0.2,0.1,0.3,0.1,0.5
	c0.2,0.4,0.5,0.9,1,1c0.3,0.1,0.5-0.1,0.7-0.2c0.9-0.4,0.6-0.7,0.8-1.8c0.1-0.4,0.2-1.1-0.1-1.4c-0.3-0.4-1.1-0.1-1.2-0.3
	c-0.1-0.2,0-0.5,0.1-0.6c0.3-0.1,0.7-0.2,1-0.3c0.5-0.2,0.8-2,0.2-2.4c-0.6-0.4-1.5,0.4-1.7,0.7c-0.1,0.2-0.1,0.5-0.3,0.6
	c-0.2,0.2-0.6,0.1-0.8,0.3c-0.4,0.3-0.6,0.5-1.1,0.2c-0.1-0.1-0.2-0.1-0.3-0.3c-0.1-0.3,0.1-0.6,0.2-0.7c0.2,0,0.3,0,0.5,0
	c0.2-0.1,0.3-0.2,0.5-0.2c0.3-0.1,0.6-0.2,0.8-0.3c0.5-0.2,0.6-0.7,1-1c0.3-0.3,0.8-0.4,1-0.8c0.3-0.4,0.3-2.7-0.2-2.8
	c-0.6-0.1-0.6,0.4-0.9,0.7c-0.1,0.1-0.2,0.1-0.3,0.2c-0.1,0.1-0.3,0.3-0.4,0.4c-0.4,0-0.8-0.4-0.9-0.6c0-0.2-0.1-0.3-0.1-0.5
	c-0.1-0.1-0.2-0.2-0.3-0.3c-0.2-0.3-0.3-0.9-0.4-1.3c-0.1-0.6,0.1-1.4-0.4-1.6c-0.2-0.1-0.5,0.2-0.6,0.2c-0.2,0.1-0.5,0.2-0.7,0.3
	c-0.3,0.2-0.5,0.4-0.8,0.6c-0.2,0.1-0.3,0.2-0.5,0.2c-0.1,0.1-0.2,0.2-0.3,0.3c-0.2,0.1-0.4,0.2-0.7,0.2c-0.2,0.2-0.5,0.4-0.7,0.5
	c-0.4,0.1-0.8,0.1-1.1,0.2c-0.2,0-0.8,0.5-1,0.6c-0.5,0.3-1.1,1.4-1.6,1.5c-0.6,0.1-1.2-0.7-1.4-1c-0.7-1-0.4-1.8,0.4-2.5
	c0.5-0.4,1.2-0.8,1.6-1.3c0.1-0.2,0.2-0.3,0.3-0.5c0.2-0.1,0.3-0.3,0.5-0.4c0.4-0.6,0.8-0.9,1.4-1.3c0.1-0.1,0.2-0.2,0.3-0.4
	c0.2-0.1,0.4-0.2,0.5-0.4c0.1-0.1,0.1-0.2,0.2-0.3c0.2-0.1,0.4-0.2,0.6-0.2c0.2-0.1,0.3-0.2,0.5-0.4c0.3-0.2,0.6-0.2,0.9-0.3
	c0.6-0.2,1.2-0.9,2-0.7c0.4,0.1,0.4,0.6,0.1,0.8c-0.3,0.1-0.6,0.2-0.9,0.3l-0.9,0.7c-0.1,0.2-0.2,0.3-0.3,0.5
	c-0.2,0.2-0.8,0.6-0.4,1.1c0.4,0.5,1.8-0.5,2.2-0.7c0.4-0.1,0.7-0.4,1-0.6c0.4-0.1,0.8-0.3,1.3-0.4c0.4-0.2,0.7-0.5,1-0.7
	c0.4-0.2,0.8-0.3,1.3-0.4c0.5-0.2,0.8-0.7,1.1-1.1c0.1-0.2,0.1-0.6,0.2-0.9c0.1-0.2,0.2-0.4,0.3-0.7c0.3-1.2-1.3-1.2-2-1.4
	c-0.1-0.1-0.3-0.2-0.4-0.3c-0.2,0-0.3-0.1-0.5-0.1c-0.3-0.2-0.2-0.5-0.4-0.8c-0.2-0.2-0.4-0.4-0.6-0.6c-0.2-0.1-0.4-0.1-0.5-0.3
	c-0.1-0.2-0.1-0.4-0.2-0.6c-0.1-0.2-0.2-0.3-0.3-0.5C198.9,26.2,198.7,25.2,199.1,24.9"/>
<path fill-rule="evenodd" clip-rule="evenodd" fill="#0C318E" d="M133.6,25.6c0.5,0,0.9,0.5,1,0.9c0,0.2,0.1,0.4,0.1,0.5
	c0.1,0.3,0.4,0.7,0.2,1.2c-0.1,0.2-0.2,0.4-0.3,0.6c-0.1,0.3-0.1,0.6-0.3,0.9c-0.1,0.2-0.4,0.3-0.5,0.6c-0.2,0.6-0.3,1.5,0,2
	c0.2,0.3,0.6,0.4,1.1,0.2c0.3-0.2,0.5-0.3,0.8-0.5c0.4-0.1,0.8-0.1,1.2-0.2c0.3-0.1,0.6-0.4,1-0.5c0.4-0.2,1.3-0.1,1.5,0.2
	c0.2,0.3,0,0.7-0.3,0.8c-0.1,0-0.3,0-0.4,0.1c-0.1,0.1-0.2,0.2-0.3,0.3c-0.3,0.2-0.6,0.3-1,0.5c-0.2,0.1-0.3,0.2-0.5,0.3
	c-1.2,0.3-2.6-0.2-3.2,0.7c-0.2,0.2-0.4,0.4-0.5,0.7c0,0.4-0.1,0.7-0.1,1.1c-0.1,0.7-0.3,2,0.4,2.3c0.3,0.1,0.8,0.1,1.2,0
	c1.3-0.2,2.8,0.1,3.4,0.7c0.2,0.2,0.6,0.5,0.5,0.8c0,0.2-0.2,0.3-0.3,0.4c-0.9,1.3-1.7-0.4-2.9-0.1c-0.5,0.1-0.6,0.5-0.9,0.7
	c-0.6,0.5-1.2,0.7-1.4,1.6c-0.1,0.4,0.1,0.8,0.1,1.1c0.2,0.9,0.1,1.4,0.7,1.8c0.3,0.2,0.8,0.1,1.2,0.3c0.3,0.1,1.6,0.6,1.7,0.7
	c0,0.1,0.1,0.3,0.2,0.4c0.1,0.2,0.3,0.2,0.4,0.5c0.1,0.4,0.2,1.3,0,1.7c-0.2,0.2-0.3,0.3-0.5,0.5c0,0.1-0.1,0.2-0.1,0.3
	c-0.1,0.2-0.4,0.5-0.6,0.6c-0.5,0.4-0.7,0.2-0.9,1c0,0.2-0.1,0.5,0,0.7c0.1,0.4,0.6,0.4,0.8,0.6c0.1,0.1,0.1,0.2,0.2,0.3
	c0.2,0.1,0.3,0.2,0.5,0.3c0.1,0.2,0.2,0.3,0.2,0.5c0.1,0.1,0.3,0.2,0.4,0.3c0.3,0.4,0.4,1.6,0.2,2c-0.1,0.3-0.1,0.5-0.3,0.7
	c-0.2,0.1-0.4,0.1-0.6,0.1c-0.5,0.1-1.4,0-1.7-0.2c-0.2-0.1-0.3-0.3-0.5-0.4c-0.2-0.1-0.4-0.1-0.6-0.2c-0.1-0.1-0.2-0.2-0.4-0.4
	c-0.5-0.4-1.5-0.3-2.2-0.5c-0.2-0.1-0.3-0.2-0.5-0.4c-0.1-0.1-0.3-0.1-0.4-0.2c-0.2-0.1-0.2-0.3-0.3-0.5c-0.1-0.1-0.2-0.1-0.4-0.2
	c-0.2-0.1-0.3-0.5-0.3-0.7v-0.9c0-0.4,0-0.9-0.1-1.3c0-0.2,0-0.4,0.1-0.6c0.1-0.2,0.8-0.7,1-0.8c0.2,0,0.4-0.1,0.6-0.2
	c0.2-0.1,0.3-0.3,0.5-0.4c0.3-0.2,0.6-0.7,0.3-1.1c-0.1-0.2-0.4-0.4-0.7-0.4c-0.4-0.1-0.9,0-1.2,0.1c-0.6,0-1.2,0-1.8,0.1
	c-0.3,0.1-0.9,0.1-1.2,0c-0.3-0.1-0.3-0.4-0.4-0.6c-0.1-0.1-0.2-0.2-0.3-0.3c0-0.2-0.1-0.3-0.1-0.5c-0.1-0.3-0.3-0.9-0.2-1.3
	c0.1-0.2,0.5-0.4,0.8-0.2c0.2,0.2,0.4,0.4,0.5,0.6c0.7,0.4,2.1,0.4,3.1,0.2c0.7-0.2,1-0.7,1.2-1.5c0.1-0.3,0-0.6,0.1-0.9
	c0.1-0.4,0.5-0.9,0.3-1.3c-0.3-0.8-1.3-1.3-2.5-1c-0.3,0.1-0.5,0.3-0.8,0.4c-0.4,0.1-0.7,0.2-1.1,0.3c-0.3,0.2-0.6,0.7-1,0.8
	c-0.3,0.1-0.4-0.1-0.6-0.2c-0.2-0.1-0.5,0-0.6-0.2c-0.3-0.3-0.2-1.8,0-2.1c0.6-0.1,0.9,0.4,1.4,0.3c0.2-0.1,0.4-0.2,0.7-0.3
	c0.4-0.1,0.8-0.2,1.2-0.3c0.1-0.1,0.3-0.2,0.4-0.3c0.4-0.1,0.7-0.2,1.1-0.3c0.1-0.1,0.2-0.2,0.3-0.4c0.4-0.6,0.3-0.5,0.4-1.4
	c0.1-0.4,0.1-1-0.1-1.4c-0.2-0.4-0.7-0.6-1.3-0.7c-0.5-0.1-1.5,0.1-1.4-0.7c0-0.2,0.7-0.8,0.9-0.9c0.4-0.1,1,0.1,1.4,0
	c0.5-0.1,1-0.5,1.2-0.9c0.1-0.4,0.1-0.7,0.2-1.1c0.1-0.5,0.3-1,0.4-1.6c0-0.4,0.1-0.7,0.1-1.1c0.1-0.6,0.3-1.2,0.5-1.7
	C133,26.2,132.8,26.1,133.6,25.6"/>
<path fill-rule="evenodd" clip-rule="evenodd" fill="#0C318E" d="M380,25.7c1.7,0,3,1.5,2.5,3.4c-0.1,0.4-0.4,0.7-0.6,1
	c-0.2,0.4-0.2,0.8-0.4,1.1c-0.2,0.3-0.5,0.3-0.8,0.5c-0.3,0.2-0.6,0.6-0.9,0.9c-0.3,0.3-1,1.1-0.6,1.6c0.3,0.4,2.1,0,2.8,0.2
	c1.1,0.3,2.6,0.2,3.7,0.4c0.4,0.1,0.7,0,1.1,0.2c0.3,0.1,1,0.5,1.3,0.7c0.1,0.1,0.3,0.3,0.4,0.4c0.2,0.1,0.3,0.2,0.5,0.3
	c0.2,0.3,0.3,0.6,0.5,0.8c0.4,0.5,1.4,1.6,1.1,2.5c-0.2,0.9-0.8,0.7-1.6,1c-0.3,0.1-0.5,0.3-0.8,0.4c-0.2,0-0.4,0-0.5,0
	c-0.2,0-0.5,0.1-0.7,0.1c-0.6,0.1-1.3,0.3-1.8,0c-0.2-0.1-0.3-0.3-0.4-0.4c-1-1.6,0.9-1.5,0.6-2.9c-0.2-1.1-1.8-1.6-3-1.8
	c-0.4,0-0.8,0-1.2,0c-0.4,0-0.8,0-1.2,0c-1,0.2-2,0.6-2.9,1c-0.4,0.1-0.8,0.2-1.2,0.2c-0.4,0.1-0.7,0.3-1,0.5
	c-0.4,0.1-0.7,0.2-1.1,0.3c-0.2,0.1-0.3,0.2-0.5,0.3c-0.3,0.1-0.8,0.2-1.1,0.4c-0.3,0.2-0.6,0.3-0.8,0.5c-0.3,0.1-0.7,0.2-1,0.3
	c-0.2,0.1-0.3,0.2-0.5,0.3c-0.4,0.1-0.7,0.2-1.1,0.3c-0.5,0.2-0.9,0.5-1.5,0.7c-0.2,0-0.4,0-0.6,0.1c-0.4,0.1-0.8,0.3-1,0.6
	c-0.2,0.3-0.2,0.6-0.4,1c-0.2,0.5-0.4,1-0.5,1.6c0,0.7-0.1,1.4-0.1,2.1v1c0,1,0,2.1-0.2,2.9c-0.2,0.7,0,2.2-1.2,1.8
	c-0.2-0.1-0.3-0.2-0.5-0.2c-0.4-0.2-1.3-1.1-1.1-1.7c0.1-0.2,0.2-0.4,0.3-0.6c0.1-0.4,0.2-0.7,0.3-1.1c0.1-0.3,0.3-0.5,0.4-0.9
	c0-0.2,0-0.4,0-0.6c0.1-0.4,0.1-0.8,0.2-1.2c0.1-0.4,0.3-0.7,0.4-1.1c0-0.4,0.1-0.8,0.1-1.2c0.1-0.5,0.4-0.9,0.5-1.4
	c0-0.5,0.1-0.9,0.1-1.4c0.1-0.6,0.4-1,0.6-1.5c0.3-1.1-0.1-3.2,0.5-4c0.5-0.7,1.3,0.3,1.6,0.7c0.1,0.2,0.3,0.6,0.2,0.9
	c-0.1,0.5-0.8,1.8,0,2.1c0.2,0.1,0.5,0.1,0.8,0c0.3-0.2,0.7-0.3,1-0.5c0.3-0.1,0.7-0.2,1-0.3c0.2-0.1,0.4-0.2,0.5-0.4
	c0.3-0.1,0.6-0.2,1-0.3c0.2-0.1,0.3-0.3,0.5-0.4c0.3-0.1,0.6-0.3,1-0.4c0.1-0.1,0.2-0.2,0.3-0.3c0.6-0.3,1.2-0.5,1.6-1
	c0.2-0.3,0.1-0.7,0.3-1c0.2-0.4,1-0.3,1.2-0.8c0.1-0.2,0-0.5,0.1-0.7c0.2-0.4,0.8-0.8,1-1.2c0.1-0.2,0.3-0.5,0.4-0.7
	c0.1-0.1,0.2-0.2,0.4-0.4c0.1-0.2,0.2-0.4,0.3-0.6c0.4-0.5,1-1,1.3-1.6c0.4-1-0.4-1.8-1.4-1.5c-0.6,0.2-1.6,1.8-1.8,2.4
	c-0.1,0.4,0.3,1.3-0.2,1.5c-0.2,0.1-0.5,0-0.7,0.1c-0.7,0.1-1.4-0.3-1.6-0.8c-0.2-0.4-0.5-1.1-1.1-1c-0.3,0.1-0.3,0.4-0.4,0.6
	c-0.3,0.5-1,0.8-1.2,1.4c-0.2,0.9,0.7,1.3-0.4,1.8c-1.1,0.5-2.2-0.9-2.3-1.7c-0.1-0.6-0.1-1.4,0.2-1.7c0.9-0.2,0.9,1,1.9,0.8
	c0.5-0.1,0.8-0.7,1.2-1c0.3-0.3,0.8-0.7,1.2-0.8c0.3-0.1,0.9-0.3,1.3-0.2c0.4,0.1,1.1,0.6,1.6,0.3c0.4-0.5,0.8-0.9,1.2-1.4
	c0.2-0.1,0.4-0.2,0.6-0.3c0.2-0.1,0.3-0.4,0.5-0.5C378.6,25.9,379.3,25.9,380,25.7"/>
<path fill-rule="evenodd" clip-rule="evenodd" fill="#0C318E" d="M274.9,27.2c0.3,0,0.4,0.2,0.6,0.4c0.2,0.1,0.4,0.2,0.6,0.2
	c0.1,0.1,0.2,0.2,0.3,0.4c0.2,0.1,0.4,0.3,0.5,0.4c0.1,0.2,0.1,0.4,0.2,0.6c0.1,0.1,0.2,0.2,0.3,0.3c0.1,0.2,0.2,0.4,0.3,0.7
	c0.3,1.1-0.1,2.3-0.3,3.1c-0.1,0.4,0.1,0.7,0,1.1c-0.1,0.4-0.4,0.7-0.4,1.1c-0.2,1,0.1,2.2-0.1,3.2c-0.1,0.4-0.1,0.8-0.2,1.1
	c-0.2,0.6-0.5,1.3-0.3,2c0.1,0.3,0.6,0.7,1.1,0.5c0.3-0.1,0.4-0.3,0.7-0.4h1.2c0.4,0.1,1-0.1,1.2-0.2c0.2-0.1,0.3-0.3,0.5-0.4
	c0.3-0.1,0.5,0.1,0.6,0.1c0.2,0,0.4,0.1,0.5,0.1c0.2,0.2,0.4,0.5,0.5,0.7c0.2,0.1,0.4,0.3,0.5,0.4c0.2,0.4,0.2,1.3-0.2,1.5
	c-0.2,0.1-0.9,0-1.3,0.1c-0.4,0.1-0.7,0.1-1.1,0.2c-0.3,0-0.7,0-1,0.1c-0.4,0.1-0.7,0.3-1.1,0.4c-0.7,0.2-1.4,0.2-1.6,0.8
	c-0.2,0.5-0.1,1.2-0.2,1.9c-0.1,0.4-0.2,0.7-0.2,1.1c-0.1,0.7,0.1,1.3,0.2,1.9c0,0.6,0.1,1.2,0.1,1.8c0.2,1.1,0.2,2.5,0.2,3.7
	c0,1,0.1,3.5-0.2,4.1c-0.5,0.2-0.6-0.2-0.8-0.5c-0.1-0.1-0.3-0.2-0.4-0.3c-0.1-0.2-0.2-0.3-0.3-0.4c-0.2-0.3-0.6-0.4-0.7-0.8
	c0-0.2,0-0.4,0-0.6c0.1-0.6,0.1-1.2,0.2-1.7c0.1-0.5,0.1-1.2,0-1.6c-0.1-0.7,0.1-1.5,0-2.2c-0.1-0.8,0.2-1.5,0-2.3
	c-0.1-0.9,0.3-1.7-0.1-2.5c-0.1-0.2-0.4-0.7-0.9-0.5c-0.1,0.1-0.3,0.2-0.4,0.4c-0.2,0.1-0.5,0.1-0.7,0.2c-0.1,0.1-0.2,0.2-0.3,0.3
	c-0.3,0.2-1.9,0.6-2.4,0.5c-0.3-0.1-0.5-0.2-0.8-0.3c-0.2-0.1-0.2-0.4-0.3-0.6c-0.1-0.1-0.2-0.1-0.3-0.2c-0.2-0.1-0.2-0.3-0.3-0.5
	c-0.2-0.2-0.4-0.3-0.5-0.5c-0.1-0.2-0.3-0.8,0-0.9c0.3-0.2,0.6,0.2,0.8,0.3c0.2,0.1,0.7,0.2,1.1,0.1c0.6-0.1,0.7-0.3,1.1-0.5
	c0.3-0.1,0.5-0.2,0.8-0.4c0.2-0.1,0.3-0.3,0.5-0.4c0.5-0.2,1.3,0,1.2-0.7c-0.1-0.6-0.7-1-1.3-1.1c-0.2,0-0.4,0-0.6-0.1
	c-0.2-0.1-0.3-0.3-0.5-0.4c-0.5-0.4-0.9-0.9-1.4-1.2c-0.3-0.2-0.7-0.1-0.9-0.3c-0.3-0.2-0.1-0.8-0.5-1c-0.3-0.1-1,0.1-1.2,0.2
	c-0.4,0.1-1.5,1.9-0.8,2.5c0.6,0.6,1.6-0.8,1.9-1.1c0.1,0,0.1,0,0.2,0c0.2,0.7,0.2,1.9-0.2,2.4c-0.1,0.2-0.4,0.2-0.6,0.4
	c-0.1,0.2-0.2,0.3-0.4,0.5c-0.2,0.2-0.5,0.2-0.7,0.4c-0.2,0.2-0.3,0.4-0.5,0.6c-0.1,0.2-0.4,0.3-0.5,0.5c-0.1,0.4-0.1,0.8-0.2,1.2
	c-0.1,0.3-0.3,0.7-0.4,1c-0.1,0.6-0.1,1.3-0.2,1.9v0.9c0,1.5,0.1,2.4-0.8,3c-0.4,0-0.7-0.5-0.8-0.8c-0.1-0.2-0.3-0.2-0.5-0.3
	c-0.2-0.1-0.2-0.5-0.3-0.8c0-0.5,0-1,0-1.5c0.1-0.7,0.6-1.8-0.1-2.2c-0.6-0.4-1,0.3-1.4,0.5c-0.2,0-0.3,0.1-0.5,0.1
	c-0.3,0.2-0.6,0.4-0.9,0.6c-0.3,0.1-0.6,0.1-0.8,0.3c-0.1,0.1-0.3,0.3-0.4,0.4c-0.2,0.1-0.4,0.2-0.6,0.2c-0.1,0.1-0.2,0.3-0.3,0.4
	c-0.1,0.1-0.8,0.4-1.1,0.4c-0.3-0.1-0.3-0.4-0.4-0.6c-0.1-0.2-0.4-0.2-0.5-0.5c-0.4-0.8,0.5-1.2,0.6-1.6c0.1-0.3,0.1-0.6,0.2-0.9
	c0.1-0.2,0.3-0.3,0.4-0.4c0.1-0.2,0.1-0.4,0.2-0.6c0.1-0.1,0.3-0.2,0.4-0.3c0.1-0.1,0.2-0.3,0.3-0.4c0.1-0.2,0.3-0.2,0.5-0.4
	c0.1-0.2,0.2-0.3,0.4-0.5c0.3-0.3,0.6-0.6,1-0.8c0.3-0.2,1.1-1.2,1.6-1c0.2,0.1,0.3,0.3,0.4,0.4c0.1,0.1,0.2,0.1,0.3,0.2
	c0.4,0.4-0.2,0.8-0.4,1c-0.1,0.2-0.2,0.4-0.4,0.5c-0.3,0.2-0.7,0.2-1,0.5c-0.2,0.2-1.1,1-0.4,1.3c0.7,0.3,1-0.4,1.4-0.6
	c0.2-0.1,0.4-0.1,0.5-0.3c0.1-0.1,0.2-0.3,0.3-0.4c0.1-0.1,0.3-0.2,0.4-0.3c0.1-0.1,0.1-0.3,0.2-0.4c0.2-0.2,0.5-0.2,0.6-0.4
	c0.2-0.4,0.1-1.1,0.4-1.5c0.2-0.4,0.6-1.2,0.3-1.9c-0.3-0.6-1.4-0.2-1.9-0.1c-0.3,0-0.6,0-1,0c-0.5,0.1-0.9,0.3-1.3,0.4
	c-0.6,0.1-1.2,0.2-1.8,0.3c-0.3,0.1-0.6,0.3-0.8,0.4c-0.3,0.1-0.6,0.2-0.9,0.3c-0.2,0.2-0.3,0.3-0.5,0.5c-0.2,0.1-0.3,0.1-0.5,0.2
	c-0.2,0.2-0.2,0.4-0.5,0.6c-0.2,0.1-0.7,0.2-1,0.1c-0.3-0.1-0.2-0.3-0.4-0.5c-0.1-0.2-0.3-0.3-0.4-0.4c-0.2-0.3-0.2-1,0-1.3
	c0.6-0.1,0.8,0.6,1.8,0.4c0.3-0.1,0.4-0.2,0.7-0.3c0.3-0.1,0.7-0.2,1-0.4c0.3-0.2,0.6-0.4,0.9-0.5h0.5c0.4-0.1,0.8-0.2,1.2-0.2
	c0.6-0.1,1.1-0.4,1.7-0.6c0.5,0,1-0.1,1.4-0.1c0.4-0.1,0.6-0.4,0.9-0.5c0.3-0.1,0.6-0.1,0.9-0.3c0.1-0.1,0.2-0.3,0.3-0.4
	c0.1-0.1,0.3-0.3,0.4-0.4c0.1-0.2,0.1-0.5,0.1-0.8c0.1-0.4,0.2-0.8,0.3-1c0.1-0.3,0.2-0.8,0.8-0.6c0.4,0.1,0.4,0.4,0.6,0.6
	c0.2,0.1,0.4,0.1,0.5,0.3c0.1,0.2,0.2,0.5,0.3,0.7c0.2,0.3,0.6,0.4,1,0.6l0.4,0.5c0.1,0.1,0.2,0.1,0.4,0.2c0.1,0.1,0.2,0.2,0.3,0.3
	c0.2,0.1,0.5,0.3,0.7,0.4c0.2,0.1,0.3,0.4,0.5,0.5c0.2,0.1,0.4,0.1,0.7,0.2c0.3,0.1,0.5,0.5,0.8,0.5c0.4,0.1,1,0,1.3,0.2
	c0.1,0.1,0.3,0.3,0.4,0.4c0.2,0.1,0.3,0.2,0.5,0.3c0.3,0.4,0.1,0.5,0.7,0.7c0.4,0.1,0.8,0.3,1-0.1c0.2-0.4,0.1-1,0.2-1.6
	c0.1-0.4,0.1-1.9,0-2.2c-0.1-0.2-0.5-0.7-0.8-0.7c-0.3-0.1-0.9,0-1.2-0.2c-0.7-0.4-1.2-1.1-1.7-1.7c-0.2-0.1-0.3-0.3-0.5-0.4
	c-0.1-0.2-0.5-0.9-0.5-1.1c0.3-0.4,1,0.1,1.3,0.2c0.2,0.1,0.4,0.1,0.6,0.2c0.2,0.1,0.3,0.4,0.5,0.5c0.2,0.1,0.5,0.2,0.7,0.3
	c0.2,0.1,0.3,0.5,0.6,0.6c0.2,0.1,0.7,0.1,0.9,0c0.8-0.4,0.7-2.3,0.7-3.6c0-0.4,0-0.9,0-1.3c-0.1-0.3-0.3-0.5-0.4-0.8
	c-0.1-0.4-0.1-0.8-0.2-1.1C275.1,28.2,274.7,27.7,274.9,27.2C274.8,27.2,274.8,27.2,274.9,27.2"/>
<path fill-rule="evenodd" clip-rule="evenodd" fill="#0C318E" d="M171.3,27.6c0.6,0,1,0.1,1.1,0.5c0,0.1,0.1,0.3,0.1,0.4
	c0.3,0.5,0.5,0.8,0.6,1.5v2.9c-0.1,0.3,0,0.8,0.1,1.1c0.3,0.6,0.8,0.2,1.4,0.3c0.2,0.1,0.4,0.2,0.6,0.3c0.4,0.1,0.8,0.1,1.1,0.3
	c0.1,0.1,0.3,0.2,0.4,0.3c0.2,0.1,0.5,0.2,0.6,0.4c0,0.1,0.1,0.2,0.1,0.4c0.1,0.2,0.2,0.3,0.3,0.5c0.1,0.3-0.1,0.5-0.2,0.6
	c-0.1,0.3-0.1,0.7-0.4,0.8c-0.7,0.3-1.8-0.3-2.3,0.1c-0.1,0.1-0.1,0.3-0.3,0.4c-0.2,0.2-0.6,0.5-0.8,0.7c-0.2,0.1-0.5,0.2-0.6,0.5
	c-0.2,0.4,0,1-0.1,1.4c-0.1,0.6-0.6,1.3-0.4,2.1c0.1,0.2,0.2,0.4,0.3,0.6l0.2,0.7c0.2,0.3,0.6,0.3,1,0.4c0.1,0.1,0.2,0.2,0.4,0.3
	c0.3,0.2,0.8,0.2,1.2,0.2h1.3c1.9,0.3,4,0.2,5.2,1c0.5,0.4,1.8,0.4,1.3,1.5c-0.5,1.2-4.4,1.7-6.2,1.1c-0.3-0.1-0.6-0.4-1-0.5
	c-0.4-0.1-0.8-0.1-1.2-0.3c-0.1-0.1-0.2-0.2-0.2-0.2c-0.2-0.1-0.4-0.1-0.6-0.2c-0.3-0.1-0.4-0.4-0.6-0.5c-0.3-0.1-0.9-0.1-1.1,0.1
	c-0.3,0.4,0.1,1.5,0.1,2.1c0,1.8,0,3.5,0,5.3c0,0.3,0,1.9,0,2c-0.1,0.2-0.3,0.2-0.5,0.3c-0.2,0.1-0.2,0.3-0.4,0.3
	c-0.4,0.1-0.4-0.3-0.6-0.4c-0.1-0.1-0.3-0.1-0.4-0.2c-0.3-0.2-0.3-0.9-0.4-1.2c-0.1-0.1-0.2-0.2-0.2-0.3c-0.1-0.2-0.1-0.5-0.2-0.7
	c-0.3-1.1,0.2-2.2,0.4-2.9c0.2-0.6,0.2-1.8,0.1-2.5v-0.9c-0.1-0.9-0.1-1.4-0.4-2c-0.1-0.2-0.1-0.5-0.4-0.6c-0.3-0.2-0.6-0.1-1-0.2
	c-0.3-0.1-0.4-0.3-0.7-0.4c-0.5-0.1-0.7,0.2-1,0.4c-0.1,0.1-0.3,0.1-0.4,0.3c-0.1,0.1-0.2,0.3-0.3,0.4c-0.5,0.4-1,0.9-1.5,1.3
	c-0.8,0.7-1.3,1.8-2.4,0.6c-0.4-0.4-0.5-1.7-0.1-2.3c0.1-0.1,0.3-0.2,0.4-0.3c0.1-0.1,0.1-0.3,0.2-0.4c0.1-0.3,0.5-0.2,0.7-0.4
	c0.1-0.2,0.3-0.3,0.5-0.5c0.2-0.1,0.5-0.2,0.7-0.4c0.2-0.1,0.4-0.3,0.6-0.4c0.1,0,0.3-0.1,0.4-0.1c0.8-0.4,1.4-1.5,2.1-2.1
	c0.3-0.2,0.6-0.5,0.8-0.7c0.1-0.1,0.3-0.2,0.4-0.2c0.1-0.1,0.1-0.3,0.1-0.5c0-0.2-0.2-0.5-0.4-0.5c-0.3-0.1-1.8,0.2-2,0.3
	c-0.2,0.1-0.3,0.3-0.5,0.4c-0.6,0.3-2.4,0.5-2.8,0c-0.3-0.3-0.5-0.9-0.8-1.2c-0.2-0.2-0.3-0.5-0.6-0.6c-0.2-0.1-0.4-0.2-0.5-0.4
	c-0.3-1.1,2.1-0.6,2.9-0.7c0.7-0.1,1-0.4,1.5-0.5c0.4-0.1,0.8-0.1,1.2-0.2c0.3-0.2,0.6-0.3,0.9-0.5c0.4-0.1,0.8-0.1,1.2-0.2
	c0.4-0.3,0.8-0.6,1.2-0.9c0.2-0.3,0.2-0.7,0.3-1c0.3-0.9,0.7-2,0.5-3.3c0-0.3-0.1-0.5-0.1-0.8c-0.1-0.3-0.6-1.1-0.3-1.5
	C171,27.7,171.2,27.7,171.3,27.6"/>
<path fill-rule="evenodd" clip-rule="evenodd" fill="#0C318E" d="M120.4,27.7c0.8,0,0.9,0.8,1,1.5c0,0.3,0,0.5,0,0.8
	c0.1,0.6,0.3,0.8,0.5,1.3c0.1,0.4,0,0.9,0.2,1.3c0.3,0.7,0.9,0.6,1.6,0.8c0.1,0,1.6,0.9,1.6,0.9c0.1,0.2,0.2,0.5,0.2,0.7
	c0.1,0.3,0.2,0.9-0.1,1.2c-0.2,0.3-0.9,0.3-1.4,0.4c-0.1,0.1-0.3,0.1-0.4,0.2c-0.3,0.1-0.5,0.2-0.8,0.2c-0.3,0.1-0.4,0.4-0.6,0.5
	c-0.3,0.2-0.7,0.1-1.1,0.2c-0.3,0.1-0.3,0.3-0.5,0.5c-0.2,0.1-0.3,0.2-0.5,0.3c-0.1,0.2-0.2,0.3-0.3,0.5c-0.1,0.1-0.3,0.2-0.4,0.3
	c-0.2,0.2-0.2,0.5-0.3,0.7c-0.1,0.2-0.3,0.4-0.4,0.6c-0.2,0.4-0.2,1.5,0,1.9c0.3,0.4,1,0,1.3-0.2c0.2-0.2,0.4-0.3,0.6-0.5
	c0.2-0.1,0.4-0.1,0.6-0.2c0.2-0.1,0.3-0.3,0.5-0.4c0.3-0.1,0.5-0.2,0.8-0.4c0.3-0.1,0.4-0.5,0.8-0.5c0,0,0.1,0.1,0.1,0.1
	c0,0.4-0.3,0.6-0.4,0.9c-0.2,0.5,0.1,1.4-0.2,1.8c-0.1,0.2-0.3,0.2-0.5,0.3c-0.1,0.1-0.2,0.3-0.3,0.4c-0.1,0.1-0.3,0.1-0.4,0.2
	c-0.1,0.2-0.2,0.3-0.4,0.5c-0.1,0.1-0.3,0.1-0.4,0.2c-0.1,0.1-0.2,0.3-0.4,0.4c-0.3,0.3-0.6,0.4-0.9,0.8c-0.2,0.3-0.7,0.4-0.8,0.8
	c-0.3,0.8,0,1.8-0.1,2.7c-0.1,0.5-0.2,1-0.4,1.5c0,0.3,0.1,0.6,0.1,0.8c0.1,0.5-0.1,1-0.1,1.3c0,0.3,0,0.5,0,0.8
	c-0.1,0.7,0.4,1.2,0.2,1.8c-1.1,0.7-1.8-0.2-2.3-0.8c-0.1-0.2-0.4-0.4-0.5-0.6c-0.1-0.4-0.2-0.7-0.3-1.1c-0.1-0.2-0.2-0.4-0.3-0.6
	c-0.1-0.8,0.5-1.7-0.1-2.2c-0.4-0.3-1.3-0.1-1.6,0.1c-0.1,0.1-0.3,0.3-0.4,0.4c-0.2,0.1-0.4,0.2-0.6,0.3c-0.1,0.1-0.2,0.2-0.3,0.4
	c-0.2,0.1-0.3,0.2-0.5,0.2c-0.2,0.1-0.3,0.4-0.6,0.5c-0.3,0.1-1.8-1.2-1.9-1.4c-0.2-0.3-0.1-1,0-1.3c0.1-0.3,0.1-0.5,0.2-0.8
	c0.2-0.5,0.9-0.9,1.2-1.2c0.5-0.5,1.1-1.1,1.6-1.6c0.2-0.2,0.4-0.3,0.6-0.5c0.1-0.1,0.2-0.3,0.3-0.4c0.2-0.2,0.4-0.4,0.6-0.5
	c0.2-0.2,0.3-0.5,0.5-0.6c0.6-0.4,1.4,0,2-0.3c0.3-0.1,0.8-0.8,0.9-1.2c0-0.4,0.1-0.8,0.1-1.2c0.1-0.3,0.2-0.7,0.1-1.1
	c-0.2-0.6-1.5-0.4-2-0.2c-0.3,0.1-0.6,0.3-0.9,0.4c-0.9,0.2-3,0.3-3.9,0.1c-0.4-0.1-0.6-0.4-0.9-0.6c-0.2-0.1-0.5-0.1-0.6-0.2
	c-0.1-0.1-0.2-0.2-0.3-0.3c-0.2-0.1-0.3-0.2-0.5-0.4c-0.1-0.1-0.3-1.3-0.3-1.4c0-0.1,0.1-0.3,0.3-0.3c0.3-0.1,0.5,0.2,0.7,0.3
	c0.3,0.1,0.8,0.1,1.2,0.1c0.5-0.1,1-0.2,1.4-0.3c0.2-0.1,0.4-0.3,0.5-0.4c0.4-0.1,0.7-0.2,1.1-0.3c0.2-0.2,0.4-0.4,0.7-0.5
	c0.2-0.1,0.5-0.1,0.7-0.2c0.3-0.2,0.4-0.4,0.8-0.6c0.2,0,0.4-0.1,0.7-0.2c0.3-0.2,0.4-0.4,0.7-0.5c0.2,0,0.4-0.1,0.6-0.1
	c0.2-0.2,0.3-0.3,0.5-0.5c0.2-0.1,0.5-0.2,0.7-0.3c0.1-0.1,0.2-0.2,0.2-0.3c0.2-0.2,0.4-0.3,0.5-0.6c0-0.7,0.1-1.4,0.1-2.2
	c0.1-0.4,0.3-0.7,0.4-0.9c0.1-0.2,0.1-0.4,0.2-0.6c0.2-0.3,0.5-0.5,0.6-0.7c0.1-0.2,0.1-0.4,0.1-0.6
	C120.3,27.8,120.3,27.7,120.4,27.7"/>
<path fill-rule="evenodd" clip-rule="evenodd" fill="#0C318E" d="M312.1,27.8c0.4,0,1.2,0.5,1.3,0.7c0,0.1,0.1,0.3,0.2,0.4
	c0.3,0.4,0.6,0.4,0.5,1.2c-0.1,0.4-0.5,1.8-0.2,2.1c0.4,0.4,0.9,0.1,1.5,0.2c0.5,0.1,1,0.1,1.3,0.3c0.2,0.1,0.3,0.2,0.5,0.4
	c0.2,0.1,0.5,0.2,0.6,0.4c0.1,0.3,0,0.6-0.1,0.8c-0.3,0.5-0.4,0.6-1,0.8c-0.2,0-0.3,0-0.5,0.1c-0.2,0.1-0.3,0.2-0.5,0.3
	c-0.5,0.1-0.9,0.3-1.4,0.4c-0.1,0.1-0.2,0.2-0.3,0.4c-0.1,0.1-0.2,0.1-0.4,0.2c-0.1,0.2-0.2,0.4-0.3,0.6c-0.1,0.1-0.2,0.2-0.3,0.3
	c-0.2,0.2-0.4,0.7-0.5,1c-0.1,0.2,0,0.4,0,0.5c0.2,0.7,0.7,0.5,1.4,0.8c0.3,0.1,0.6,0.4,0.9,0.6c0.2,0.1,0.4,0.1,0.6,0.2
	c0.1,0.2,0.2,0.4,0.4,0.5c0.2,0.1,0.4,0.1,0.4,0.3c0.2,0.5,0.3,2.7,0.2,3.3c-0.1,0.4-0.7,0.8-0.4,1.4c0.3,0.6,0.5,0.5,1,0.8
	c0.2,0.2,0.4,0.4,0.7,0.5c0.4,0.1,0.8,0.1,1.2,0.2c0.2,0.1,0.4,0.3,0.6,0.4c0.3,0.1,0.7,0.2,1,0.3c0.3,0.2,0.5,0.3,0.8,0.5
	c0.2,0.1,0.5,0.1,0.7,0.2c0.2,0.2,0.4,0.4,0.7,0.5c0.2,0.1,0.3,0.1,0.5,0.2c0.2,0.1,0.3,0.3,0.5,0.4c0.2,0.1,0.4,0.1,0.5,0.3
	c0.1,0.1,0.1,0.2,0.2,0.4c0.1,0.1,0.3,0.2,0.4,0.4c0.2,0.3,0.2,1,0.2,1.4c0,0.3,0,0.6-0.2,0.7c-0.2,0.2-0.6,0-0.8-0.1
	c-0.1-0.1-0.2-0.2-0.3-0.3c-0.4-0.3-1.1-0.1-1.6-0.3c-0.3-0.2-0.6-0.3-0.9-0.5c-0.5-0.1-1,0-1.4-0.3c-0.2-0.2-0.5-0.3-0.7-0.4
	c-0.2-0.1-0.5,0-0.6-0.2c-0.7-0.4-2.5-2-3.7-1.5c-0.4,0.2-0.7,0.5-1,0.8c-0.2,0.1-0.5,0.2-0.7,0.4c-0.1,0.1-0.2,0.2-0.3,0.3
	c-0.2,0.1-0.3,0.1-0.5,0.2c-0.1,0.1-0.1,0.2-0.2,0.3c-0.2,0.2-0.6,0.4-0.9,0.5c-0.4,0.1-0.8,0-1.1-0.1c-0.7-0.1-1.3,0-1.9-0.1
	c-0.4-0.1-0.7-0.4-1-0.5c-0.2-0.1-0.4,0-0.5-0.1c-0.2-0.1-0.2-0.4-0.4-0.6c-0.1-0.1-0.3-0.2-0.4-0.3c-0.2-0.2-0.3-1.2-0.1-1.5
	c0.6-0.1,1.1,0.4,1.7,0.5c1,0.2,2.6-0.1,3.2-0.5c0.2-0.2,0.4-0.4,0.6-0.6c0.3-0.2,0.7-0.3,0.8-0.8c0.1-0.6-0.2-1-0.6-1.1
	c-0.3-0.1-0.5,0-0.6-0.2c-0.2-0.3-0.1-0.7-0.4-1c-0.2-0.2-0.5-0.2-0.7-0.3c-0.2-0.1-0.3-0.3-0.4-0.4c-0.3-0.1-0.5-0.2-0.8-0.3
	c-0.2-0.1-0.3-0.3-0.5-0.4c-0.2-0.1-0.4,0-0.6-0.1c-0.3-0.1-0.3-0.5-0.6-0.6c-0.3-0.2-0.7-0.1-0.9-0.3c0-0.4,0.4-0.5,0.3-0.9
	c-0.1-0.5-0.7-1.6,0.1-1.8c0.4-0.1,0.6,0.3,0.8,0.4c0.3,0.1,0.3,0.3,0.5,0.5c0.1,0.1,0.2,0.1,0.4,0.2c0.2,0.1,0.3,0.4,0.4,0.5
	c0.2,0.1,0.4,0.3,0.6,0.4c0.2,0.1,0.3,0.3,0.6,0.4c0.2,0.1,0.5,0,0.6-0.1c0.8-0.4-0.1-1.4,0-2.2c0.1-0.5,0.7-0.5,0.4-1.4
	c-0.3-1-1,0.1-1.8-0.1c-0.3,0-0.5-0.1-0.8-0.1c-0.3-0.2-0.6-0.4-0.8-0.6c-0.2,0-0.3-0.1-0.5-0.1c-0.2-0.1-0.8-0.5-0.8-0.8
	c0,0,0,0,0-0.1c0.6-0.7,1.7-0.5,2.5-0.9c0.2-0.1,0.3-0.3,0.5-0.4c0.3-0.1,0.5-0.2,0.8-0.3c0.1-0.1,0.6-0.4,0.7-0.5
	c0.2-0.2,0.2-0.5,0.4-0.7c0.1-0.1,0.3-0.1,0.4-0.2c0,0,0.6-0.8,0.6-0.8c0.2-0.4,0.1-0.9,0.2-1.4c0.1-0.8,0.3-1.4,0.1-2.3
	C311.7,28.8,311.6,28.1,312.1,27.8"/>
<path fill-rule="evenodd" clip-rule="evenodd" fill="#0C318E" d="M171.7,28L171.7,28c0.1,0.2,0.2,0.3,0.3,0.2h0c0,0,0-0.1,0-0.1
	c0,0-0.1-0.1-0.1-0.1H171.7z"/>
<path fill-rule="evenodd" clip-rule="evenodd" fill="#0C318E" d="M266.3,28.1c1.2,0.1,1.3,2.9,0.8,3.8c-0.1,0.2-0.4,0.2-0.6,0.4
	c-0.1,0.1-0.2,0.2-0.2,0.3c-0.3,0.3-1.5,0.1-2,0.3c-0.3,0.1-0.5,0.4-0.9,0.5c-0.4,0-0.9,0-1.3-0.1c-0.6,0.1-1.1,0.2-1.7,0.3
	c-0.4,0.1-0.7,0.4-1.2,0.5c-0.9,0.2-1.5-0.3-2.2-0.5c-0.5-0.1-0.8,0.1-1.2,0.1c-0.1-0.2-0.4-0.5-0.2-0.9c0.2-0.4,1.4-0.3,2-0.4
	c0.5-0.1,0.7-0.4,1.1-0.5c0.6-0.1,1.2-0.2,1.8-0.3c0.2-0.1,0.4-0.2,0.5-0.3c0.4-0.1,0.7-0.3,1.1-0.4c0.2-0.2,0.5-0.4,0.7-0.6
	c0.3-0.1,0.7-0.1,1.1-0.2c0.3-0.1,0.4-0.3,0.6-0.4c0.2-0.1,0.5-0.2,0.7-0.3C265.7,29.2,265.8,28.5,266.3,28.1"/>
<path fill-rule="evenodd" clip-rule="evenodd" fill="#0C318E" d="M305.1,28.1c0.8,0,2.4,0.4,1.8,1.2c-0.5,0.1-0.7,0.3-1,0.5
	c-0.2,0.1-0.5,0.2-0.7,0.3c-0.1,0.1-0.2,0.2-0.3,0.3c-0.2,0.1-0.3,0.2-0.5,0.3c-0.1,0.1-0.2,0.3-0.3,0.4c-0.1,0.1-0.3,0.2-0.4,0.3
	c-0.1,0.2-0.1,0.4-0.2,0.6c-0.1,0.2-0.6,0.7-0.1,0.9c0.5,0.2,0.6-0.6,1.3,0c0.2,0.2,0.4,0.8,0.1,1c-0.2,0.1-0.4,0.1-0.6,0.2
	c-0.3,0.1-0.5,0.4-0.8,0.5c-0.2,0.1-0.4,0.1-0.6,0.2c-0.2,0.2-0.4,0.4-0.6,0.7c-0.1,0.3-0.2,0.5-0.2,0.8c-0.1,0.2-0.3,0.4-0.4,0.6
	c-0.1,0.2-0.3,1.2-0.2,1.6c0.3,1.6,1,0.3,1.6,0.7c0.4,0.3,0.5,1.1,0.7,1.6c0.1,0.2,0.2,0.4,0.3,0.5c0.1,0.4-0.4,0.3-0.7,0.4
	c-0.5,0.2-0.7,0.4-1,0.7c-0.2,0.1-0.4,0.3-0.7,0.5c-0.2,0.2-0.2,0.5-0.4,0.7c-0.1,0.1-0.2,0.2-0.4,0.4c-0.1,0.5-0.3,0.9-0.4,1.4
	c0,0.4,0,0.8,0,1.3c-0.1,0.3-0.3,0.4-0.4,0.6c-0.1,0.3,0,0.5,0.1,0.8c0,0.4,0,0.9,0,1.3c-0.2,1.3,0.1,2.7-0.1,4c0,0.5,0,0.9,0,1.4
	c0,0.3,0,0.6,0.1,0.8c0.1,0.5,0.1,1.4-0.2,1.7c-0.2,0.1-0.5,0.2-0.7,0.2c-0.7,0.2-1-0.5-1.4-0.7c-0.2-0.1-0.4-0.1-0.5-0.2
	c-0.2-0.1-0.2-0.3-0.3-0.5c-0.2-0.1-0.3-0.2-0.5-0.3c-0.2-0.3-0.1-0.8-0.2-1.2c-0.2-0.3-0.4-0.6-0.6-0.9c-0.2-0.4-0.2-0.8-0.4-1.1
	c-0.2-0.4-0.5-0.9-1-1c-0.2-0.1-0.5,0.1-0.7,0c-0.3-0.1-1.5-0.4-1.6-0.7c-0.1-0.5,0.1-1.5,0.2-1.8c0.1-0.2,0.3-0.3,0.4-0.6
	c0.1-0.3,0.1-0.8,0.4-1c0.2-0.1,0.4-0.1,0.5-0.2c0.2-0.2,0.3-0.3,0.5-0.5c0.2-0.1,0.4-0.2,0.6-0.3c0.1-0.1,0.2-0.2,0.3-0.3
	c0.2-0.2,0.4-0.3,0.6-0.5c0.1-0.1,0.2-0.3,0.3-0.4c0.1-0.1,0.3-0.2,0.4-0.4c0.1-0.2,0.2-0.4,0.3-0.6c0.2-0.1,0.3-0.3,0.5-0.4
	c0.1-0.2,0.1-0.3,0.2-0.5c0.1-0.1,0.3-0.2,0.4-0.3c0.1-0.1,0.2-0.3,0.3-0.4c0.1-0.2,0.4-0.2,0.5-0.3c0.1-0.1,0.2-0.3,0.3-0.4
	c0.2-0.1,0.3-0.2,0.5-0.3c0.1-0.2,0.2-0.3,0.3-0.5c0.2-0.3,0.5-0.4,0.5-1c-0.1-0.8,0.1-1.8,0.3-2.4c0.1-0.3,0.4-0.6,0.2-1
	c-0.3-0.6-1.7-0.4-2.3-0.3c-0.5,0.1-1.1,0.4-1.7,0.5c-0.4,0.1-0.8,0.1-1.2,0.2c-0.3,0.1-0.6,0.3-1,0.4c-0.6,0.1-1.2,0.2-1.9,0.4
	c-0.6,0.1-2.5,0-2.6-0.4h0c0.7-0.3,1.8,0,2.6-0.2c0.4-0.1,0.7-0.4,1.1-0.5c0.3-0.1,0.7-0.1,1.1-0.2c0.5-0.2,0.9-0.4,1.4-0.6
	c0.6-0.1,1.2-0.1,1.8-0.2c0.4-0.2,0.8-0.3,1.2-0.5c0.4-0.1,0.9-0.1,1.2-0.3c0.2-0.2,1-1,1.1-1.2c0.1-0.3,0.1-0.6,0.2-0.9
	c0.1-0.2,0.3-0.4,0.4-0.6c0.1-0.3,0.1-0.7,0.2-1c0.2-0.2,0.3-0.4,0.5-0.7c0.1-0.3,0.2-0.5,0.3-0.8c0.1-0.1,0.3-0.2,0.4-0.3
	c0.1-0.1,0.1-0.3,0.2-0.4l0.5-0.4c0.1-0.2,0.2-0.3,0.3-0.5C304.4,28.3,304.8,28.3,305.1,28.1"/>
<path fill-rule="evenodd" clip-rule="evenodd" fill="#0C318E" d="M339.3,28.3c0.2,0,0.4,0.1,0.5,0.1c0.2,0,0.3,0,0.5,0
	c0.5,0,1.1,0,1.4,0.2c0.1,0.1,0.3,0.2,0.4,0.4c0.5,0.2,0.9,0.4,1.2,0.8c0.2,0.2,0.1,0.6,0.3,0.9c0.1,0.2,0.3,0.3,0.3,0.6
	c0.1,0.4-0.2,0.6-0.3,0.9c-0.2,0.7-0.3,3.4,0.2,3.8c0.6,0.4,1.4-0.6,2.2-0.5c0.5,0.1,0.9,0.1,1.2,0.3c0.1,0.1,0.3,0.2,0.4,0.3
	c0.2,0,0.4,0,0.5,0.1c0.2,0.1,0.9,0.7,1,0.9c0.1,0.1,0.1,0.2,0.2,0.3c0.2,0.1,0.4,0.2,0.5,0.4c0,0.1,0,0.2,0.1,0.3
	c0.2,0.4,0.7,0.5,0.5,1.2c-0.3,1.1-1.6,0.5-2.6,0.7c-0.7,0.1-1,0.4-1.6,0.6c-0.5,0-1,0.1-1.5,0.1c-0.3,0.1-0.4,0.3-0.6,0.5
	c-0.2,0.1-0.4,0.2-0.6,0.3c-0.4,0.3-0.2,1.3,0,1.7c0.2,0.3,0.5,0.5,0.7,0.8c0.1,0.1,0.3,0.2,0.4,0.2c0.1,0.1,0.2,0.2,0.3,0.4
	c0.2,0.1,0.3,0.1,0.5,0.2c0.1,0.1,0.2,0.2,0.3,0.4c0.2,0.1,0.4,0.2,0.6,0.4c0.1,0.1,0.2,0.2,0.3,0.3c0.2,0.1,0.4,0.2,0.7,0.4
	c0.2,0.2,0.3,0.3,0.5,0.5c0.2,0.1,0.4,0.1,0.6,0.2c0.1,0.1,0.3,0.3,0.5,0.4c0.4,0.2,0.9,0.2,1.4,0.4c0.3,0.1,0.5,0.3,0.8,0.4
	c0.5,0.1,1,0.1,1.5,0.2c0.2,0.1,0.4,0.1,0.6,0.2c0.2,0.1,0.3,0.3,0.5,0.3c0.5,0.1,1.2,0.1,1.6,0.4c0.1,0.1,0.2,0.2,0.3,0.3
	c0.2,0,0.3,0.1,0.5,0.1c0.8,0.3,1.3,1,1,2.2c-0.1,0.2-0.1,0.3-0.2,0.5c-0.3,0.5-2,0.5-2.7,0.3c-0.3-0.1-0.6-0.3-0.8-0.4
	c-0.4,0-0.8-0.1-1.2-0.1c-0.4-0.1-0.6-0.4-0.9-0.6c-0.2,0-0.3,0-0.5-0.1c-0.2-0.1-0.4-0.1-0.6-0.2c-0.2-0.1-0.3-0.3-0.4-0.4
	c-0.3-0.1-0.6-0.2-0.9-0.4c-0.1-0.1-0.3-0.3-0.5-0.4c-0.3-0.1-0.6-0.1-0.8-0.3c-0.2-0.2-0.4-0.3-0.6-0.5c-0.2,0-0.4-0.1-0.5-0.1
	c-0.2-0.1-0.3-0.3-0.5-0.4c-0.2-0.1-0.4-0.2-0.6-0.4c-0.2-0.2-0.3-0.3-0.5-0.5c-0.2-0.1-0.3-0.1-0.5-0.1c-0.2-0.1-0.3-0.3-0.5-0.4
	c-0.2-0.1-0.5-0.3-0.7-0.4c-0.4-0.3-0.6-0.7-1.3-0.6c-1.2,0.2-0.9,2.5-1.1,3.8c-0.1,0.3-0.1,0.6-0.2,0.8c-0.1,0.3-0.3,0.5-0.4,0.8
	c-0.1,0.4-0.1,0.8-0.2,1.2c-0.1,0.2-0.2,0.4-0.3,0.6c-0.1,0.4-0.3,0.7-0.4,1.1c-0.2,0.1-0.3,0.2-0.5,0.2c-0.1,0.1-0.3,0.3-0.4,0.4
	c-0.1,0.1-1.4,0.5-1.6,0.5c-0.2-0.1-0.6-0.2-0.9-0.2c-0.5,0.1-1.1,0.5-1.5,0.4c-0.3-0.1-0.5-0.3-0.7-0.4c-0.2-0.1-0.5,0-0.7-0.2
	c-0.2-0.1-0.2-0.4-0.3-0.5c-0.1-0.1-0.3-0.3-0.4-0.4c-0.1-0.2-0.1-0.4-0.2-0.6c-0.2-0.4-0.5-0.7-0.6-1.1c-0.3-1,0.1-3,0.3-3.9
	c0-0.2,0-0.4,0-0.5c0.7-0.3,0.9,0.2,1.3,0.4c0.7,0.2,2.5,0.3,3.1,0c0.1-0.1,0.2-0.2,0.3-0.3c0.1-0.1,0.2-0.1,0.3-0.2
	c0.2-0.3,0.2-0.8,0.4-1.1c0.1-0.1,0.2-0.2,0.3-0.4c0.2-0.4,0.2-0.8,0.3-1.3c0.1-0.5,0.1-1.4-0.1-1.6c-0.2-0.4-0.7-0.2-1.2-0.3
	c-0.4-0.1-0.5-0.3-0.8-0.4c-0.2-0.1-0.5-0.1-0.7-0.2c-0.3-0.2-0.6-0.5-0.8-0.8c-0.1-0.1-0.1-0.3-0.2-0.4c-0.2-0.1-0.3-0.3-0.5-0.4
	c-0.1-0.2-0.2-0.3-0.2-0.5c-0.1-0.1-0.2-0.2-0.3-0.3c-0.1-0.2-0.2-0.5-0.3-0.7c-0.1-0.2-0.3-0.2-0.4-0.4v-0.2c0,0,0.1-0.1,0.1-0.1
	c0.7,0,1.3,0.4,2.1,0.2c0.4-0.1,0.7-0.2,1.1-0.3c0.1-0.1,0.3-0.3,0.4-0.4c0.3-0.2,0.6-0.2,0.9-0.4c0.1-0.1,0.2-0.2,0.4-0.3
	c0.2-0.1,0.3-0.1,0.5-0.2c0.4-0.3,0.8-0.7,1.2-1c0.2-0.2,0.1-0.6,0.2-0.9c0.1-0.4,0.4-0.6,0.5-0.9c0.1-0.4,0.1-0.8,0.2-1.3
	c0.2-0.5,0.4-0.9,0.6-1.5c0-0.5,0.1-1,0.1-1.4c0-0.3,0-0.7,0-0.9c-0.2-0.4-1-0.7-1.3-1.1c0-0.1,0-0.1,0-0.2
	C339.2,28.3,339.3,28.3,339.3,28.3"/>
<path fill-rule="evenodd" clip-rule="evenodd" fill="#0C318E" d="M120.8,28.5c0,0,0,0.1-0.1,0.1c0,0.1,0.1,0.2,0.2,0.2v-0.2
	C120.9,28.6,120.8,28.5,120.8,28.5"/>
<path fill-rule="evenodd" clip-rule="evenodd" fill="#0C318E" d="M266.4,28.6c0,0-0.1,0.1-0.1,0.1c0,0.1,0,0.1,0.1,0.1
	c0.1,0,0.1,0.1,0.2,0.1C266.7,28.7,266.5,28.6,266.4,28.6"/>
<path fill-rule="evenodd" clip-rule="evenodd" fill="#0C318E" d="M306.1,28.7c-0.1,0.1-0.1,0.1-0.1,0.2c0.1,0,0.1,0,0.2,0.1
	c0.1,0,0.1-0.1,0.2-0.1v0c0-0.1-0.1-0.1-0.1-0.2C306.1,28.7,306.1,28.7,306.1,28.7"/>
<path fill-rule="evenodd" clip-rule="evenodd" fill="#0C318E" d="M159.5,42v0.1c-0.2,0.2-0.7,0.8-0.6,1.3c0.1,0.3,0.3,0.7,0.2,1.1
	c-0.1,0.5-0.4,0.7-0.5,1c-0.1,0.4-0.1,0.7-0.2,1.1c-0.2,1.1-0.4,2.3-0.4,3.7c0,0.7,0,1.4,0,2.1c0,0.2,0.2,0.4,0.1,0.7
	c0,0.1-0.2,0.2-0.3,0.3c-0.1,0.2-0.3,0.5-0.6,0.4c-0.2,0-0.2-0.2-0.4-0.3c-0.1-0.1-0.3-0.1-0.5-0.2c-0.3-0.2-0.2-0.7-0.4-1.1
	c-0.1-0.3-0.4-0.5-0.5-0.9c-0.1-0.5,0.3-0.8,0.4-1.1c0.3-0.8,0.1-1.8-0.6-1.9c-0.9-0.2-0.8,0.6-1.2,0.9c-0.2,0.2-0.5,0.4-0.7,0.6
	c-0.2,0.1-0.3,0.1-0.5,0.2c-0.1,0.1-0.3,0.3-0.4,0.4c-0.3,0.2-0.6,0.1-1.1,0.3c-0.3,0.1-0.8,0.4-1.3,0.3c-0.1,0-0.8-0.7-0.8-0.8
	c-0.2-0.3-0.6-1.3-0.4-1.8c0.2-0.3,0.6-0.5,0.8-0.8c0.1-0.2,0.1-0.4,0.2-0.6c0.2-0.1,0.3-0.3,0.5-0.4c0-0.1,0.1-0.2,0.2-0.3
	c0.1-0.2,0.3-0.2,0.5-0.3c0.1-0.1,0.2-0.3,0.3-0.4c0.2-0.1,0.3-0.2,0.5-0.4c0.2-0.2,0.8-1,1.1-1.1c0.1-0.1,0.3,0,0.5,0
	c0.3,0,0.7-0.2,0.9,0.1c0.3,0.5-0.5,0.8,0.2,1.1c0.1,0.1,0.3,0.1,0.5,0.1c0.3-0.1,0.3-0.3,0.5-0.4c0.2-0.1,0.4-0.2,0.6-0.3
	c0.1-0.1,0.7-0.9,0.7-1c0.1-0.2,0-0.5,0-0.7c0.1-0.2,0.1-0.4,0.2-0.6c0.1-0.4,0.4-0.8,0.5-1.3c0.1-0.5,0.2-1.7,0-2.1
	c-0.2-0.7-1.3-0.3-1.9-0.2c-0.2,0-0.4,0-0.6,0.1c-0.3,0.2-0.6,0.3-0.9,0.5c-0.6,0.1-1.2,0.2-1.8,0.3c-0.3,0.1-0.7,0.3-1.1,0.4
	c-0.6,0.1-1.1,0.2-1.7,0.2c-0.3,0.1-0.6,0.3-1,0.4c-0.4,0.1-0.7,0.1-1.1,0.2c-0.5,0.1-2,0.1-2.3-0.1c-0.2-0.1-0.2-0.3-0.4-0.5
	c-0.4-0.3-0.7-0.5-0.5-1.3c0.1-0.3,0.4-0.6,0.7-0.4c0.4,0.1,0.5,0.5,0.8,0.7c0.5,0.2,0.9,0.1,1.4,0c0.3,0,0.7-0.1,1-0.1
	c0.8-0.1,1.2-0.4,1.8-0.6c0.6-0.1,1.1-0.2,1.7-0.2c0.1-0.1,0.3-0.2,0.4-0.2c0.3-0.1,0.5-0.2,0.8-0.3c0.5-0.1,1.1-0.1,1.6-0.2
	c0.4-0.1,0.6-0.4,1-0.5c0.4-0.1,0.8-0.1,1.2-0.3c0.4-0.2,1.2-0.8,1.4-1.2c0.1-0.4,0.2-0.8,0.3-1.2c0.1-0.3,0.3-0.5,0.4-0.8
	c0.1-0.4,0.1-0.8,0.2-1.1c0.1-0.2,0.3-0.3,0.4-0.5c0.1-0.3,0.2-0.7,0.3-1c0.1-0.2,0.3-0.4,0.4-0.5c0.2-0.4,0-1,0.3-1.4
	c0.3-0.4,0.6-0.1,0.8,0c0.3,0.1,0.5,0.1,0.7,0.3c0.1,0.2,0.1,0.4,0.1,0.5c0.1,1-0.3,1-0.6,1.5c-0.1,0.2-0.2,0.5-0.3,0.7
	c-0.2,0.2-0.4,0.3-0.5,0.5c-0.1,0.3-0.3,1.9-0.3,2.3c0.1,0.6,0.4,1.2,0.2,1.9c-0.1,0.4-0.4,0.4-0.6,0.6c-0.1,0.2-0.2,0.3-0.3,0.5
	c-0.2,0.1-0.3,0.3-0.5,0.5c-0.2,0.3-0.1,0.8-0.2,1.2c-0.1,0.5-0.4,1.7-0.3,2.1c0.1,0.1,0.2,0.2,0.3,0.3C159.2,42,159.3,42,159.5,42"
	/>
<path fill-rule="evenodd" clip-rule="evenodd" fill="#0C318E" d="M160.6,29.2c0,0-0.1,0.1-0.1,0.1c-0.1,0.1,0,0.3,0.2,0.4
	c0.1-0.1,0.1-0.2,0.2-0.3c0,0,0-0.1,0-0.1C160.7,29.3,160.7,29.2,160.6,29.2"/>
<path fill-rule="evenodd" clip-rule="evenodd" fill="#0C318E" d="M235.7,31.2c1.1,0,1.9,0.3,2.8,0.5c0.7,0.1,1.2-0.4,1.8-0.5
	c0.4-0.1,1,0.1,1.3,0.3c0.1,0.1,0.2,0.3,0.3,0.4c0.2,0.1,0.3,0.1,0.5,0.2c0.2,0.2,0.4,1,0.3,1.4c-0.2,0.9-0.5,0.6-1.1,1
	c-0.3,0.2-0.5,0.4-0.8,0.6c-0.1,0.1-0.2,0.3-0.3,0.4c-0.1,0.1-0.3,0.2-0.5,0.3c-0.1,0.1-0.2,0.3-0.4,0.4c-0.1,0.1-0.2,0.1-0.3,0.2
	c-0.1,0.2-0.2,0.3-0.3,0.5c-0.6,0.5-1-0.1-1.2,1c0,0.2,0,0.5,0.1,0.6c0.2,0.2,0.4,0.4,0.6,0.5c0.3,0.4,0.8,1.2,1.3,1.3
	c0.5,0.1,0.9,0,1.5,0.1c0.7,0,1.3,0,2,0c0.3-0.1,0.8-0.1,1.2-0.1c0.4,0.1,1,0.6,1.2,0.9c0.2,0.2,0.4,0.3,0.5,0.5
	c0.1,0.2,0.1,1,0,1.3c-0.1,0.3-0.8,0.6-1.2,0.5c-1-0.3-2.1-0.5-3.4-0.3c-0.7,0.1-1.3,0-1.6,0.5c-0.2,0.4,0,0.9-0.1,1.3
	c-0.1,0.7-0.1,1.3-0.2,2c-0.2,0.4-0.3,0.7-0.5,1.1c-0.1,0.6-0.1,1.2-0.3,1.8c-0.1,0.4-0.4,0.6-0.5,1.1c-0.1,0.6,0,1.2-0.2,1.8
	c-0.2,0.3-0.3,0.6-0.5,0.9c-0.2,0.7,0,1-0.6,1.4c-0.5,0.3-1.1,0.2-1.6-0.1c-0.1-0.1-0.2-0.2-0.3-0.3c-0.2,0-0.3-0.1-0.5-0.1
	c-0.2-0.1-0.2-0.3-0.4-0.4c-0.1-0.2-0.4-0.2-0.5-0.4c-0.2-0.2-0.1-0.6-0.3-0.8c-0.3-0.3-0.4-0.5-0.6-0.8c-0.2-0.2-0.5-0.3-0.6-0.6
	c0-0.2-0.1-0.4-0.1-0.6c-0.1-0.3-0.8-1.3-0.2-1.6c0.5-0.1,0.6,0.4,0.8,0.6c0.2,0.2,0.5,0.2,0.8,0.3c0.4,0.2,0.7,0.5,1.3,0.4
	c0.3-0.1,0.8-0.4,0.9-0.6c0.1-0.2,0.2-0.3,0.3-0.4c0.1-0.1,0.3-0.1,0.3-0.3c0.1-0.3,0.2-0.7,0.3-1c0.1-0.3,0.4-0.5,0.5-0.9
	c0.1-0.6,0.1-1.2,0.2-1.7c0.1-0.5,0.8-1.5,0.2-2.1c-0.5-0.5-1.4-0.3-2.1-0.1c-0.5,0.1-1.1,0.1-1.6,0.2c-0.3,0.1-0.6,0.3-0.8,0.4
	c-0.4,0.1-0.8,0.1-1.1,0.3c-0.2,0.1-0.4,0.3-0.6,0.4c-0.5,0.2-1.1,0-1.6,0.1c-0.4,0.1-1.2,0.9-1.5,0.6c-0.2-0.1-0.2-1-0.3-1.4
	c-0.1-0.7-0.8-1.4-0.7-2.3c0.1-0.1,0.1-0.1,0.2-0.2c0,0,0.1,0,0.1,0c0.3,0.2,0.3,0.7,0.6,0.8c0.3,0,0.5,0,0.8,0c0.7,0,1.4,0,1.9-0.2
	c0.3-0.1,0.6-0.3,0.9-0.4c0.4-0.1,0.7-0.2,1-0.3c0.2-0.1,0.3-0.3,0.6-0.4c0.7-0.2,2.8,0,3-0.6c0.2-0.5-0.4-1.2-0.6-1.3
	c-0.2-0.1-0.4-0.1-0.5-0.2c-0.3-0.2-0.4-1.6-0.2-2.1c0.2-0.6,1-0.6,1.4-1c0,0,0.6-0.6,0.6-0.7c0.1-0.2,0.1-0.4,0.3-0.6
	c0.1-0.1,0.2-0.1,0.4-0.2c0.2-0.2,0.3-1.1,0.1-1.3c-0.1-0.2-0.5-0.3-0.9-0.2c-0.2,0.1-0.4,0.1-0.5,0.2c-0.4,0-0.7,0.1-1.1,0.1
	c-0.4,0.1-0.9,0.1-1.3,0.2c-0.8,0.1-1.5,0.2-2.3,0.2c-0.4,0.1-0.7,0.4-1.1,0.5c-0.5,0.1-1.2,0.1-1.6,0.3c-0.2,0.1-0.3,0.2-0.5,0.4
	c-0.3,0.2-0.6,0.2-0.9,0.4c-0.1,0.1-0.1,0.2-0.2,0.4c-0.1,0.1-1,0.6-1.2,0.7c-0.5,0.1-1.3,0.1-1.6-0.1c-0.1-0.1-0.2-0.2-0.3-0.3
	c-0.2,0-0.3-0.1-0.5-0.1c-0.2-0.1-0.9-0.7-1-1c-0.1-0.4,0-0.9,0-1.4c0.9-0.7,1,0.7,1.9,0.4c0.4-0.1,0.7-0.4,1.1-0.5
	c0.4-0.1,0.8-0.1,1.2-0.2c0.2-0.1,0.4-0.3,0.6-0.4c0.6-0.3,1.2-0.6,1.9-0.8c0.6-0.1,1.2-0.1,1.8-0.2c0.5-0.1,0.9-0.4,1.5-0.4h1
	c0.3,0,0.6-0.1,1-0.1C235.3,31.2,235.5,31.2,235.7,31.2"/>
<path fill-rule="evenodd" clip-rule="evenodd" fill="#0C318E" d="M138.9,31.7C138.9,31.7,138.9,31.7,138.9,31.7
	C138.9,31.7,138.9,31.7,138.9,31.7C139,31.7,139,31.7,138.9,31.7C139,31.7,139,31.7,138.9,31.7L138.9,31.7z"/>
<path fill-rule="evenodd" clip-rule="evenodd" fill="#0C318E" d="M256,33.1c-0.1,0.1-0.1,0.1-0.1,0.2c0.1,0,0,0.1,0.1,0.1
	c0.1-0.1,0.1-0.1,0.2-0.2C256.1,33.1,256.2,33.1,256,33.1C256,33.1,256,33.1,256,33.1"/>
<path fill-rule="evenodd" clip-rule="evenodd" fill="#0C318E" d="M223.6,33.6C223.6,33.6,223.6,33.6,223.6,33.6c0,0.1,0,0.1,0,0.1v0
	h0.1c0,0,0,0,0,0C223.7,33.6,223.7,33.6,223.6,33.6"/>
<path fill-rule="evenodd" clip-rule="evenodd" fill="#0C318E" d="M317.3,33.6C317.2,33.6,317.2,33.7,317.3,33.6
	c-0.1,0.1,0,0.2,0,0.2c0,0.1,0.1,0.1,0.1,0.2c0,0,0,0,0,0c0,0,0.1,0,0.1-0.1C317.5,33.7,317.4,33.7,317.3,33.6
	C317.3,33.6,317.3,33.6,317.3,33.6"/>
<path fill-rule="evenodd" clip-rule="evenodd" fill="#0C318E" d="M271.4,34.3c0,0,0,0.1,0,0.1h0C271.5,34.4,271.5,34.4,271.4,34.3
	C271.5,34.4,271.5,34.4,271.4,34.3C271.5,34.3,271.5,34.3,271.4,34.3L271.4,34.3z"/>
<path fill-rule="evenodd" clip-rule="evenodd" fill="#0C318E" d="M125,35.9c0,0,0,0.1,0,0.1C125,36,125.1,36,125,35.9L125,35.9
	L125,35.9z"/>
<path fill-rule="evenodd" clip-rule="evenodd" fill="#0C318E" d="M201.8,36.1c-0.3,0.2-0.7,0.2-1,0.4c-0.1,0.2-0.3,0.4-0.4,0.5
	c-0.2,0.1-0.5,0.1-0.6,0.3c-0.5,0.6-0.4,1.7-0.1,2.5c0.2,0.4,0.2,1,0.6,1.1c0.4,0.1,0.7-0.2,0.9-0.4c0.7-0.5,1.5-1,1.3-2.4
	C202.3,37.2,202.9,36.1,201.8,36.1"/>
<path fill-rule="evenodd" clip-rule="evenodd" fill="#0C318E" d="M176.9,37.3C176.9,37.3,176.9,37.4,176.9,37.3l-0.1,0.1
	c0,0,0,0,0.1,0c0,0,0,0,0,0C177,37.4,177,37.4,176.9,37.3C177,37.4,177,37.3,176.9,37.3L176.9,37.3z"/>
<path fill-rule="evenodd" clip-rule="evenodd" fill="#0C318E" d="M107.9,37.8C107.8,37.8,107.8,37.8,107.9,37.8c0,0.2,0,0.2,0,0.3
	h0.1c0,0,0,0,0.1-0.1c0,0,0-0.1,0-0.1c0,0,0,0,0-0.1C107.9,37.8,107.9,37.8,107.9,37.8"/>
<path fill-rule="evenodd" clip-rule="evenodd" fill="#0C318E" d="M212.4,38.6c0,0,0,0.1-0.1,0.1c0,0,0,0.1,0,0.1
	c0.1,0,0.1,0.1,0.2,0c0,0,0,0,0-0.1C212.5,38.7,212.5,38.7,212.4,38.6"/>
<path fill-rule="evenodd" clip-rule="evenodd" fill="#0C318E" d="M380.1,38.7c0.9,0,1,0.2,1.5,0.6c0.2,0.1,0.4,0.2,0.6,0.4
	c0.5,0.6,0.1,1.9-0.2,2.5c-0.1,0.1-0.2,0.2-0.3,0.4c0,0.2-0.1,0.4-0.1,0.6c-0.2,0.4-0.7,0.4-0.7,1.1c0,0.2,0,0.4,0.1,0.5
	c0.5,0.6,1.7-0.2,2.4-0.1c0.3,0.1,0.6,0.2,0.9,0.3c0.2,0,0.4,0,0.6,0.1c0.6,0.1,1,0.4,1.5,0.7c0.2,0.1,0.5,0.1,0.6,0.4
	c0.1,0.2-0.1,0.6-0.1,1c0,0.4,0.4,0.9,0.1,1.2c-1,1.2-4.8-0.8-5.4,0.7c-0.4,0.8-0.1,2.2-0.3,3.3c-0.4,2.7-0.2,5.5-1.5,7.3
	c-0.1,0.1-0.1,0.3-0.2,0.4c-0.1,0.3-0.6,0.7-0.9,0.8c-0.3,0.1-1.1-0.4-1.5-0.5c-0.4-0.1-0.7-0.2-1-0.3c-0.2-0.1-0.3-0.2-0.4-0.3
	c-0.4-0.1-1-0.1-1.3-0.3c-0.1-0.1-0.2-0.3-0.3-0.4c-0.1-0.1-0.3-0.2-0.4-0.3c-0.1-0.1-0.6-0.8-0.6-0.8c-0.2-0.4-0.2-0.7-0.4-1
	c-0.1-0.2-0.4-0.3-0.5-0.5c-0.2-0.3-0.6-2.1-0.4-2.4h0c0.7,0,1.1,0.7,1.5,1c0.3,0.2,0.6,0.2,0.9,0.3c0.3,0.1,0.6,0.4,0.9,0.5
	c0.3,0,0.7,0.1,1,0.1c0.3,0.1,0.7,0.3,1.1,0.2c1.5-0.4,1.8-2.7,1.8-4.6c0-0.6,0.2-1.6-0.1-2c-0.4-0.5-1.1,0.1-1.4,0.3
	c-0.3,0.1-0.5,0.2-0.8,0.3c-0.2,0.1-0.4,0.2-0.6,0.3c-0.6,0.2-1.1,0.3-1.7,0.5c-0.5,0.2-1.2,0.7-1.9,0.4c-0.4-0.2-1-1-1.2-1.3
	c-0.2-0.3-0.6-0.6-0.7-1c0-0.2,0-0.4,0-0.6c0-0.2,0-0.4,0-0.5c0.1-0.5,0.6-1.1,1.3-1c0.5,0.1,0.7,0.4,1.2,0.6
	c0.6,0.1,1.4,0.1,1.9-0.1c0.3-0.1,0.6-0.4,0.9-0.5c0.5-0.2,1-0.3,1.5-0.6c0.9-0.5-0.2-1.9,0.3-2.8c0.3-0.5,1.8-1.3,1.4-2.2
	c-0.3-0.7-1.6,0-2,0.2c-0.6,0.3-1,0.6-1.5,0.9c-0.2,0.2-0.3,0.3-0.5,0.5c-0.2,0.1-0.4,0.2-0.6,0.3c-0.1,0.1-0.2,0.2-0.3,0.3
	c-0.3,0.2-0.7,0.3-1,0.4c-0.2,0.1-0.3,0.2-0.6,0.3c-0.5,0.1-1.8-0.6-1.9-1c-0.1-0.4-0.3-1.1,0.1-1.3c0.5-0.3,0.8,0.7,1.6,0.4
	c0.5-0.2,0.9-0.7,1.4-1c0.2-0.1,0.4-0.2,0.7-0.3c0.3-0.2,0.5-0.4,0.8-0.5c0.2,0,0.3-0.1,0.5-0.1c0.4-0.1,0.7-0.3,1.1-0.4
	c0.5-0.1,1.1-0.2,1.6-0.3c0.4-0.1,0.6-0.6,1.1-0.7C379.6,38.8,379.9,38.8,380.1,38.7"/>
<path fill-rule="evenodd" clip-rule="evenodd" fill="#0C318E" d="M207.7,40.2c0,0.1,0,0.1,0,0.2h0h0.1
	C207.8,40.3,207.8,40.2,207.7,40.2C207.8,40.2,207.8,40.2,207.7,40.2"/>
<path fill-rule="evenodd" clip-rule="evenodd" fill="#0C318E" d="M312.7,42.1c-0.2,0.1-0.4,0.3-0.6,0.4c-0.3,0.2-0.8,0.2-1,0.6
	c-0.3,0.9,1.3,1.8,2.2,1.5c0.5-0.1,0.8-1.1,0.5-1.8C313.7,42.3,313.4,42.1,312.7,42.1"/>
<path fill-rule="evenodd" clip-rule="evenodd" fill="#0C318E" d="M205.4,44c-0.4,0.2-0.9,0.1-1.3,0.3c-0.4,0.3-0.4,2.7,0,3
	c0.4,0.3,1.5,0,1.4,0.9c-0.2,0.8-1.2,0.6-1.5,1.2c-0.4,0.8,0,2,0.7,2.2c0.9,0.1,1.2-0.2,1.6-0.5c0.2-0.2,0.5-0.3,0.7-0.5
	c0.1-0.2,0.3-0.5,0.4-0.7c0.1-0.2,0.3-0.3,0.4-0.5c0.1-0.3,0.1-0.7,0.2-1.1c0.1-0.3,0.3-0.5,0.5-0.8c0.1-0.2,0.2-0.5,0.3-0.7
	c0.1-0.2,0.4-0.3,0.4-0.6c0.1-0.5-0.2-0.7-0.4-0.9C208.3,44.4,206.7,44,205.4,44"/>
<path fill-rule="evenodd" clip-rule="evenodd" fill="#0C318E" d="M298.5,45.7c-0.4,0.2-0.5,0.4-0.7,0.7c-0.1,0.1-0.3,0.2-0.4,0.4
	c-0.1,0.2-0.2,0.5-0.2,0.7c-0.2,0.1-0.3,0.3-0.5,0.4c-0.1,0.2-0.2,0.5-0.4,0.7c-0.1,0.1-0.2,0.2-0.4,0.3c-0.1,0.3-0.1,0.6-0.2,0.9
	c-0.1,0.5-0.7,0.6-0.6,1.3c0.1,0.4,0.3,0.6,0.5,0.8c0.1,0.3,0.3,0.6,0.4,0.8c0.1,0.1,0.2,0.2,0.3,0.3c0.1,0.2,0.1,0.4,0.2,0.6
	c0.2,0.4,0.7,0.9,1.1,1c0.6,0.1,0.8-0.9,0.9-1.3c0.1-0.3,0.3-0.4,0.3-0.7c0.3-1.4-0.1-3,0.1-4.6c0-0.3,0-0.6,0-0.9
	C299.2,46.6,299.3,45.7,298.5,45.7"/>
<path fill-rule="evenodd" clip-rule="evenodd" fill="#0C318E" d="M163.4,47.8c0,0-0.1,0.1-0.1,0.1v0c0,0,0,0.1,0,0.1
	c0.1,0.1,0.3,0.1,0.4,0c0,0,0-0.1,0-0.1c0,0-0.1,0-0.1-0.1C163.5,47.9,163.5,47.9,163.4,47.8"/>
<path fill-rule="evenodd" clip-rule="evenodd" fill="#0C318E" d="M256,50C256,50,255.9,50.1,256,50c-0.1,0.1-0.1,0.1-0.1,0.1
	c0,0,0,0,0,0c0.1,0,0.1,0,0.2,0C256.2,50.1,256.2,50,256,50"/>
<path fill-rule="evenodd" clip-rule="evenodd" fill="#0C318E" d="M356.6,50.4C356.6,50.5,356.5,50.5,356.6,50.4L356.6,50.4
	C356.6,50.5,356.6,50.5,356.6,50.4L356.6,50.4C356.6,50.4,356.6,50.5,356.6,50.4"/>
<path fill-rule="evenodd" clip-rule="evenodd" fill="#0C318E" d="M109.3,50.7c0,0.1,0,0.1,0,0.2c0,0,0,0,0,0c0,0,0.1,0,0.2,0v-0.1
	C109.4,50.7,109.3,50.7,109.3,50.7L109.3,50.7z"/>
<path fill-rule="evenodd" clip-rule="evenodd" fill="#0C318E" d="M157.3,52.8c0,0-0.1,0.1-0.1,0.1v0.1c0,0,0,0,0.1,0h0.1
	C157.4,52.9,157.4,52.9,157.3,52.8C157.4,52.8,157.4,52.8,157.3,52.8"/>
<path fill-rule="evenodd" clip-rule="evenodd" fill="#0C318E" d="M236.5,54.9c0,0-0.1,0-0.1,0.1c0,0,0,0.1,0.1,0.1h0
	c0.1,0,0.1,0,0.2-0.1v0C236.6,55,236.6,54.9,236.5,54.9"/>
<path fill-rule="evenodd" clip-rule="evenodd" fill="#0C318E" d="M117.3,55.5c-0.1,0.1-0.2,0-0.2,0.2c0.2,0.1,0.3,0.1,0.4-0.1
	c0-0.1,0-0.1-0.1-0.1C117.4,55.6,117.3,55.5,117.3,55.5"/>
</svg>
